<?xml version="1.0" standalone="no"?>
<!DOCTYPE svg PUBLIC "-//W3C//DTD SVG 20010904//EN"
 "http://www.w3.org/TR/2001/REC-SVG-20010904/DTD/svg10.dtd">
<svg version="1.0" xmlns="http://www.w3.org/2000/svg"
 width="5500.000000pt" height="3500.000000pt" viewBox="0 0 5500.000000 3500.000000"
 preserveAspectRatio="xMidYMid meet">
<metadata>
Created by potrace 1.16, written by Peter Selinger 2001-2019
</metadata>
<g transform="translate(0.000000,3500.000000) scale(0.100000,-0.100000)"
fill="#000000" stroke="none">
<path d="M0 19241 c0 -12598 3 -15760 13 -15764 9 -4 9 -7 -1 -18 -6 -7 -12
-37 -12 -66 0 -48 2 -53 23 -53 12 0 28 4 36 9 17 11 56 -22 48 -41 -2 -8 -28
-20 -56 -28 l-51 -14 0 -226 c0 -207 2 -228 18 -243 10 -10 27 -17 37 -17 18
0 75 55 75 72 0 5 15 7 32 4 18 -3 49 -8 69 -11 33 -5 37 -3 58 35 l22 40 65
-1 c35 -1 64 -5 64 -10 0 -5 9 -9 20 -9 11 0 20 -4 20 -9 0 -5 26 -15 58 -21
31 -6 65 -15 74 -20 27 -15 65 -12 72 5 3 9 20 22 38 29 41 18 83 5 121 -38
19 -20 30 -27 34 -18 2 6 12 12 22 12 9 0 22 5 28 11 11 11 37 16 138 24 214
17 292 28 324 46 33 20 33 20 80 -4 38 -19 57 -22 101 -17 50 5 56 8 69 38 14
30 41 45 41 22 0 -5 18 -10 40 -10 28 0 40 -4 40 -14 0 -30 223 -33 241 -4 10
15 129 13 172 -3 30 -11 38 -9 80 16 26 15 54 24 63 21 8 -3 23 0 34 6 14 9
22 9 34 -1 28 -24 19 -55 -24 -81 -46 -29 -54 -64 -17 -74 27 -7 95 3 103 15
9 15 43 10 52 -8 9 -16 12 -16 36 0 24 16 36 47 18 47 -4 0 -23 13 -42 30
l-35 29 83 1 82 0 0 -44 c0 -26 -5 -46 -12 -48 -9 -3 -9 -6 0 -12 7 -4 12 -2
12 3 0 8 6 7 19 0 11 -8 26 -9 37 -4 18 8 17 9 -4 12 -12 3 -20 9 -17 14 10
15 37 10 51 -9 12 -16 13 -15 14 8 1 19 3 21 8 8 7 -18 -5 -337 -33 -858 -16
-289 -65 -1250 -85 -1645 -5 -110 -12 -235 -15 -277 l-5 -78 243 0 243 0 13
308 c13 332 25 582 40 872 6 102 13 239 16 305 33 725 77 1491 88 1501 3 4 5
-47 3 -112 -2 -66 -1 -100 1 -76 2 23 8 42 14 42 5 0 9 -5 9 -12 0 -9 3 -9 12
0 17 17 65 15 72 -3 3 -9 18 -15 36 -15 18 0 33 6 36 15 4 8 12 15 20 15 22 0
17 11 -27 51 -38 35 -39 38 -21 48 10 6 50 11 88 13 56 2 74 -1 96 -17 31 -22
53 -76 45 -107 -4 -12 -1 -31 6 -42 6 -12 11 -24 12 -28 0 -3 3 -9 7 -13 4 -4
4 -13 2 -20 -3 -7 -1 -16 5 -20 6 -3 11 -2 11 3 0 5 18 15 40 22 27 9 39 18
38 29 -2 10 3 15 12 12 8 -2 29 -7 45 -11 29 -6 29 -7 7 -14 -26 -9 -25 -29 1
-34 10 -2 17 3 17 12 0 9 4 16 9 16 5 0 24 16 42 35 38 40 68 44 142 19 43
-15 63 -34 35 -34 -14 0 22 -29 37 -30 6 0 21 10 35 23 22 19 35 22 115 22
124 -1 173 -12 177 -39 4 -27 65 -37 74 -12 4 10 18 16 39 16 19 0 37 4 40 10
3 5 46 10 95 10 49 0 91 4 94 9 3 4 26 11 52 14 26 2 50 11 55 18 9 16 15 4
23 -46 5 -29 29 -55 51 -55 17 0 35 22 35 42 0 13 8 18 25 18 14 0 25 5 25 10
0 6 17 18 37 27 21 10 46 23 55 31 15 12 21 10 53 -13 19 -15 39 -33 43 -39 4
-7 23 -19 42 -29 29 -13 37 -14 45 -3 6 7 17 15 25 18 10 4 3 11 -22 23 -37
18 -55 45 -43 65 10 16 85 13 85 -4 0 -9 7 -12 18 -9 18 4 72 -46 72 -68 0 -5
13 -9 28 -9 35 0 58 36 48 74 -5 22 -12 26 -45 26 -22 0 -41 -5 -43 -12 -6
-17 -58 32 -58 54 0 10 -4 18 -10 18 -5 0 -10 7 -10 15 0 9 -10 15 -26 15 -33
0 -64 17 -64 35 0 7 -5 15 -12 17 -6 2 -9 12 -5 21 5 13 13 16 31 11 13 -3 34
-1 46 6 18 10 27 7 57 -15 31 -25 34 -31 28 -61 -4 -25 -1 -39 10 -50 13 -13
15 -14 15 0 0 19 63 39 100 31 28 -6 30 -10 30 -51 0 -24 -4 -44 -10 -44 -5 0
-10 5 -10 10 0 6 -4 10 -10 10 -5 0 -10 -7 -10 -15 0 -8 9 -15 20 -15 17 0 20
-7 20 -42 0 -53 -16 -370 -30 -613 -5 -99 -17 -299 -25 -445 -8 -146 -19 -335
-25 -420 -5 -85 -12 -209 -15 -275 -3 -66 -12 -219 -20 -340 -8 -121 -19 -312
-25 -425 -6 -113 -13 -222 -15 -242 l-5 -38 8223 0 8224 0 6 453 c4 248 11
852 17 1342 9 811 20 1194 37 1299 5 30 14 44 44 65 47 32 49 47 7 55 -46 9
-58 24 -58 70 0 25 3 36 8 28 10 -15 42 -5 42 14 0 7 9 19 19 26 18 13 25 29
22 56 -1 16 -77 16 -85 0 -4 -7 -4 16 -1 51 3 35 5 77 5 92 0 28 1 28 48 24
26 -3 72 -8 102 -12 54 -8 55 -8 35 -28 -57 -57 -60 -63 -40 -85 10 -11 23
-20 29 -20 6 0 24 -12 39 -26 22 -20 27 -32 24 -62 -4 -39 -20 -49 -84 -51
-41 -1 -47 -13 -32 -58 9 -29 9 -37 -2 -44 -29 -16 -54 -39 -38 -33 21 7 79
-50 79 -77 0 -14 -7 -19 -27 -19 -38 0 -63 -17 -44 -29 11 -7 11 -9 0 -13 -10
-4 -6 -13 14 -32 55 -52 141 -20 92 34 -14 15 -13 19 4 34 11 10 17 24 14 31
-2 8 3 27 13 43 13 23 26 31 58 35 28 4 44 2 51 -7 15 -19 75 -48 75 -36 0 5
-7 27 -16 49 -13 33 -23 41 -64 55 -27 9 -58 16 -70 16 -35 0 -12 19 31 26 50
8 58 21 22 36 l-28 12 44 4 c27 2 49 -2 60 -11 9 -8 33 -17 54 -21 23 -4 37
-13 37 -21 0 -8 -5 -15 -11 -15 -5 0 -8 -4 -5 -9 3 -4 16 -6 29 -4 18 4 28 16
37 44 11 32 17 38 34 34 12 -3 15 -2 9 1 -7 3 -13 10 -13 15 0 16 23 10 46
-12 18 -16 26 -19 41 -10 10 6 12 11 6 11 -7 0 -13 4 -13 9 0 13 71 29 110 24
18 -2 39 2 46 8 11 9 22 5 48 -15 21 -16 51 -27 79 -30 38 -4 50 0 72 20 14
13 32 24 38 24 16 0 59 -29 70 -47 10 -17 93 -17 101 0 5 9 7 9 12 0 7 -15 34
-17 34 -3 0 15 107 13 112 -2 3 -9 6 -9 12 0 4 7 2 12 -3 12 -6 0 -11 6 -11
13 0 17 45 38 65 31 17 -7 21 -44 5 -44 -5 0 -10 -11 -10 -24 0 -13 -7 -26
-15 -30 -23 -8 -18 -26 8 -26 22 -1 22 -1 2 -16 -11 -8 -32 -18 -47 -21 -31
-6 -34 -13 -16 -31 9 -9 5 -12 -17 -12 -21 0 -26 -3 -16 -9 9 -6 11 -18 7 -35
-7 -29 -37 -47 -44 -28 -6 19 -40 14 -62 -10 l-20 -22 0 22 c0 13 -6 22 -16
22 -27 0 -9 25 20 27 16 1 37 10 48 20 15 14 21 15 27 4 6 -9 11 -10 15 -2 4
6 2 11 -5 11 -10 0 -10 3 -1 12 19 19 15 26 -18 33 -21 5 -39 2 -55 -9 -13 -9
-42 -16 -64 -16 -22 0 -41 -5 -44 -12 -5 -15 9 -46 31 -68 14 -13 14 -15 -1
-18 -25 -5 -21 -22 6 -22 12 0 38 -14 57 -30 30 -25 32 -30 15 -31 -13 0 -5
-7 23 -19 45 -21 53 -35 23 -45 -11 -3 -22 -12 -25 -20 -6 -17 -47 -20 -63 -4
-16 16 -53 -11 -53 -38 0 -12 -5 -23 -11 -25 -8 -3 -8 -10 2 -26 17 -28 83
-32 93 -5 6 15 8 15 23 1 21 -22 10 -56 -12 -38 -12 10 -15 9 -15 -8 0 -17 -8
-21 -47 -24 -27 -3 -52 -1 -58 4 -5 5 -2 8 8 8 10 0 17 8 17 20 0 11 -6 20
-12 20 -17 -1 -66 -29 -53 -31 6 -1 -5 -4 -23 -8 -46 -9 -44 -23 5 -36 51 -12
75 -32 54 -44 -16 -10 -5 -17 32 -19 48 -3 146 -62 103 -62 -9 0 -18 -11 -22
-25 -4 -17 -13 -25 -27 -25 -20 0 -20 0 -1 -15 26 -20 104 -20 104 0 0 25 22
17 58 -22 l34 -38 19 24 c11 14 19 39 19 62 0 35 -3 39 -25 39 -16 0 -25 6
-25 16 0 9 5 14 13 11 48 -21 67 -34 67 -48 0 -10 11 -20 25 -23 26 -7 34 -31
12 -39 -7 -3 -2 -9 13 -15 22 -8 25 -7 28 14 3 21 9 24 43 24 28 0 39 -4 39
-15 0 -9 11 -20 25 -25 14 -5 30 -22 36 -37 7 -17 13 -23 16 -15 4 10 8 10 20
1 11 -10 19 -7 40 14 22 22 24 28 13 41 -8 11 -9 16 -1 16 6 0 11 7 11 16 0 9
7 14 18 12 13 -2 18 -15 20 -54 2 -43 7 -53 28 -63 14 -6 40 -11 59 -11 40 0
44 -14 13 -41 -19 -15 -40 -18 -120 -19 l-98 0 0 -30 c0 -33 -15 -38 -46 -16
-19 15 -19 15 1 30 19 15 18 15 -22 16 l-43 0 0 -40 c0 -27 -4 -40 -14 -40
-13 0 -16 -5 -35 -61 -8 -24 -6 -25 20 -21 16 2 36 -1 44 -8 13 -11 14 -8 11
16 -2 16 -1 21 1 12 2 -10 11 -18 19 -18 8 0 14 -9 14 -20 0 -20 9 -24 84 -34
22 -3 43 -10 46 -17 6 -8 9 -8 15 1 4 7 3 15 -2 19 -5 3 -12 16 -15 27 -5 20
-3 21 36 12 22 -5 43 -13 46 -18 3 -5 20 0 38 13 22 15 32 30 32 49 0 20 4 26
15 21 9 -3 25 3 35 12 12 11 41 20 72 22 29 3 64 8 78 13 62 21 89 20 101 -2
9 -17 8 -23 -5 -30 -11 -6 -15 -16 -11 -28 3 -10 0 -22 -6 -26 -18 -11 -219
-14 -219 -3 0 5 -7 9 -15 9 -17 0 -19 -6 -5 -23 59 -73 55 -70 80 -57 20 10
25 10 35 -3 11 -15 47 -20 133 -18 30 1 42 5 42 16 0 11 -12 15 -42 16 -39 1
-37 2 17 9 33 5 64 4 69 0 14 -14 -2 -40 -24 -40 -35 0 -22 -17 31 -39 34 -15
49 -27 45 -36 -3 -9 7 -18 29 -26 20 -8 36 -21 39 -33 2 -12 2 3 0 33 -5 63 2
71 62 71 26 0 51 7 68 21 l26 20 0 -20 c0 -12 6 -21 14 -21 26 0 30 -23 8 -41
-26 -21 -28 -29 -6 -29 13 0 14 -3 4 -15 -17 -21 -2 -38 31 -33 16 3 29 1 29
-4 0 -4 12 -8 26 -8 15 0 32 -7 38 -15 6 -9 29 -18 51 -22 22 -3 44 -11 48
-17 5 -6 5 4 2 22 -5 26 -3 32 10 32 11 0 15 6 11 18 -6 17 2 19 91 19 106 1
120 -2 103 -22 -8 -10 -8 -20 -2 -32 8 -13 21 -16 56 -14 41 2 46 0 46 -19 0
-20 -4 -22 -44 -18 -43 3 -44 2 -39 -23 4 -22 0 -27 -33 -37 -32 -9 -42 -8
-77 10 -42 21 -95 30 -103 17 -5 -8 39 -31 91 -46 43 -14 44 -39 1 -60 -20 -9
-36 -21 -36 -27 0 -5 -10 0 -22 11 -13 11 -47 32 -76 47 l-54 26 -19 -22 c-10
-13 -18 -26 -19 -30 0 -14 60 -39 118 -49 31 -6 76 -19 99 -29 45 -21 82 -25
125 -15 34 9 58 -26 36 -52 -11 -14 -8 -15 25 -11 28 3 37 0 38 -12 0 -11 3
-10 8 4 6 16 9 17 16 6 7 -11 10 -10 16 6 7 17 8 17 8 1 1 -18 -196 -631 -229
-712 -4 -11 -18 -56 -30 -100 -12 -44 -37 -129 -55 -190 -45 -145 -112 -379
-140 -485 -13 -47 -26 -93 -30 -102 -7 -17 11 -18 284 -18 l290 0 11 43 c6 23
15 53 20 67 5 14 13 41 19 60 5 19 26 91 46 160 20 69 43 145 50 170 64 219
180 562 188 554 8 -8 48 16 42 25 -2 5 10 5 28 2 33 -7 52 -41 23 -41 -9 0
-16 -8 -16 -20 0 -24 -13 -25 -47 -3 -24 16 -26 16 -39 -2 -8 -10 -14 -27 -14
-36 0 -10 -3 -26 -7 -36 -6 -17 -5 -17 15 1 14 12 20 26 16 38 -4 14 0 18 20
18 14 0 26 -4 26 -10 0 -17 49 -23 80 -10 17 7 30 17 30 22 0 6 7 7 16 4 25
-10 56 12 49 35 -5 14 0 21 19 29 14 5 26 14 26 20 0 5 11 10 26 10 l25 0 -29
31 c-15 16 -35 31 -43 32 -8 2 -20 6 -27 11 -8 5 -18 4 -25 -3 -6 -6 -24 -11
-40 -11 -28 0 -29 1 -24 37 4 20 11 39 17 43 8 5 6 10 -6 14 -10 4 -21 1 -25
-5 -4 -7 -17 -9 -29 -6 -19 5 -21 2 -16 -26 5 -25 4 -27 -3 -12 -9 19 -10 19
-10 -2 -1 -12 -8 -28 -16 -37 -8 -8 -15 -28 -15 -45 0 -16 -5 -33 -10 -36 -14
-9 -6 28 33 146 24 76 34 96 47 91 12 -5 13 -3 2 10 -10 12 -9 22 3 49 l15 34
-6 -36 c-6 -41 3 -47 86 -58 43 -6 45 -7 43 -37 -2 -21 2 -34 13 -38 17 -7 53
10 70 32 15 20 57 11 69 -15 5 -13 15 -23 22 -23 7 0 13 -5 13 -11 0 -5 -4 -7
-10 -4 -16 10 -47 -13 -52 -38 -4 -19 3 -31 29 -51 37 -30 42 -45 16 -47 -12
-1 -10 -4 7 -9 l25 -8 -26 -1 c-29 -1 -44 20 -26 38 15 15 2 24 -25 18 -15 -4
-28 -19 -36 -41 -7 -19 -19 -37 -27 -40 -37 -14 -10 -26 60 -26 71 0 75 -1 81
-24 6 -27 17 -30 117 -42 45 -5 57 -10 57 -24 0 -28 26 -43 65 -37 19 3 35 2
35 -2 0 -5 18 -11 40 -15 22 -3 40 -10 40 -15 0 -16 -60 -24 -76 -10 -11 9
-18 9 -26 1 -7 -7 -22 -12 -34 -12 -12 0 -24 -7 -28 -15 -4 -12 3 -15 29 -15
18 0 37 -4 40 -10 4 -6 -28 -8 -86 -6 -102 3 -119 13 -119 69 0 29 -1 29 -37
23 -21 -3 -44 -6 -50 -6 -7 0 -13 -9 -13 -20 0 -11 4 -20 9 -20 19 0 22 -39 5
-65 -14 -21 -15 -28 -4 -35 7 -4 10 -12 6 -18 -9 -14 19 -22 57 -17 l32 5 -30
-14 c-21 -11 -24 -15 -12 -16 12 0 17 -6 15 -17 -2 -12 -22 -23 -63 -34 -33
-9 -63 -14 -68 -12 -8 5 2 56 14 63 4 3 3 17 -4 30 -9 18 -22 26 -47 28 -19 1
-52 7 -72 14 -33 10 -41 9 -57 -6 -16 -14 -29 -16 -62 -11 -36 6 -41 5 -36 -9
4 -10 -4 -23 -23 -38 -37 -27 -38 -46 -5 -54 14 -3 25 -10 25 -15 0 -5 6 -9
13 -9 7 0 18 -9 25 -20 7 -11 19 -20 27 -20 8 0 15 -4 15 -10 0 -5 18 -13 40
-16 22 -4 40 -10 40 -14 0 -14 62 -30 116 -30 41 0 59 -5 74 -20 11 -11 20
-24 20 -30 0 -5 7 -10 15 -10 8 0 15 -9 15 -19 0 -11 5 -21 12 -23 9 -3 9 -6
0 -12 -7 -4 -12 -2 -12 4 0 6 -12 2 -26 -9 -14 -11 -32 -17 -40 -14 -10 4 -14
-2 -14 -21 0 -30 -49 -61 -80 -51 -10 3 -28 0 -39 -7 -23 -14 -24 -17 -12 -36
10 -17 81 -6 81 12 0 7 28 18 61 25 61 14 61 14 39 31 l-23 17 27 5 c25 5 26
3 27 -41 3 -70 3 -75 12 -88 10 -16 137 -18 137 -3 0 6 -7 25 -16 41 -8 17
-13 33 -10 37 3 3 -15 13 -41 21 -45 15 -48 18 -49 53 l-1 37 51 7 c78 11 109
7 162 -20 l49 -25 -49 -13 c-82 -22 -72 -58 16 -58 55 0 78 -7 78 -25 0 -7 15
-17 33 -20 53 -12 65 -45 16 -45 l-32 0 27 -25 c28 -26 64 -27 68 -2 0 7 2 17
2 22 5 35 46 47 80 22 15 -11 17 -17 7 -35 -8 -16 -9 -28 -1 -42 13 -25 26
-25 75 0 22 11 46 20 55 20 21 0 40 -20 40 -41 0 -9 8 -20 17 -23 18 -7 38 7
38 27 0 18 47 19 69 2 16 -12 17 -17 6 -30 -7 -8 -10 -25 -7 -37 4 -14 0 -26
-11 -34 -15 -11 -12 -13 21 -19 41 -8 87 0 87 15 0 6 -7 10 -15 10 -8 0 -15 9
-15 19 0 11 -5 23 -11 27 -6 3 -9 15 -6 25 3 11 1 19 -3 19 -4 0 -6 9 -3 20 4
16 14 20 44 20 22 0 39 5 39 11 0 8 -16 10 -49 7 -29 -3 -55 0 -65 7 -15 11
-13 14 14 23 18 7 28 7 25 2 -4 -6 10 -10 32 -10 47 0 71 -28 51 -60 -7 -11
-19 -21 -28 -24 -12 -3 -11 -4 3 -5 9 0 17 -5 17 -10 0 -5 17 -7 38 -4 32 4
39 1 55 -24 26 -40 22 -48 -23 -48 -22 0 -41 -4 -42 -10 -2 -6 32 -11 85 -13
79 -3 87 -1 87 16 0 22 42 47 64 39 9 -4 16 -18 16 -32 l0 -25 1096 0 1096 0
-48 44 c-27 24 -65 56 -84 72 -19 16 -52 46 -72 67 -20 20 -42 37 -48 37 -5 0
-10 3 -10 8 0 4 -25 27 -56 52 -31 25 -66 54 -77 66 -12 11 -87 81 -167 155
-141 130 -332 315 -745 721 -110 108 -246 240 -301 295 -189 183 -788 767
-953 928 -469 458 -599 598 -593 638 7 54 393 856 585 1217 410 769 698 1253
1137 1910 180 270 242 361 253 375 5 5 63 89 131 185 368 527 882 1170 1300
1625 144 157 560 575 669 672 51 45 101 90 112 100 104 95 489 403 504 403 4
0 20 -13 36 -30 23 -24 37 -30 70 -30 53 0 65 13 65 73 l0 50 46 -43 c39 -36
50 -41 76 -36 47 9 58 24 58 73 l0 45 37 -36 c28 -26 46 -36 70 -36 42 0 73
30 73 70 0 17 3 30 6 30 4 0 22 -13 41 -30 37 -33 46 -35 92 -19 26 9 32 18
37 50 l7 39 33 -25 c37 -28 94 -33 117 -10 9 8 18 28 22 45 l7 30 36 -25 c20
-14 47 -25 59 -25 12 0 46 -18 75 -40 37 -28 63 -40 86 -40 31 0 159 57 192
85 8 7 65 39 125 70 245 127 340 179 347 189 4 6 8 21 8 33 0 18 14 30 59 52
52 27 62 29 90 18 28 -10 38 -7 111 28 90 44 107 58 112 95 4 34 98 86 127 70
33 -17 59 -12 139 31 98 53 102 56 102 88 0 39 74 75 136 65 41 -6 55 0 261
106 120 62 260 135 310 162 97 52 188 90 213 90 8 0 47 -9 85 -21 262 -81 543
-61 793 56 47 22 57 24 80 13 15 -7 65 -14 112 -17 47 -3 105 -12 130 -20 29
-9 80 -14 140 -13 52 1 141 -4 197 -11 l101 -12 -5 -86 -5 -86 78 -1 c142 -1
204 -39 204 -126 0 -29 -8 -65 -20 -88 -11 -22 -20 -54 -20 -73 0 -18 -6 -39
-12 -46 -8 -7 -13 -40 -13 -87 l0 -75 50 -14 c28 -7 59 -16 70 -18 13 -3 9 -5
-11 -6 -17 0 -73 9 -125 20 -157 36 -159 36 -159 4 0 -22 -3 -26 -17 -20 -32
14 -73 18 -73 7 0 -6 -7 -18 -16 -26 -8 -9 -18 -41 -21 -71 -3 -30 -10 -55
-14 -55 -5 0 -9 -54 -9 -120 0 -73 -4 -120 -10 -120 -6 0 -10 -47 -10 -120 0
-83 4 -120 11 -120 8 0 10 -17 6 -53 -5 -56 3 -84 22 -73 8 5 11 -11 11 -53 0
-42 -4 -60 -14 -63 -11 -2 -11 -8 -3 -28 l11 -25 4 28 c3 24 7 27 43 27 39 0
39 0 39 -40 l0 -40 80 0 80 0 0 40 0 40 40 0 c33 0 40 3 40 20 0 10 6 23 13
27 8 4 20 21 28 37 16 35 39 46 39 19 0 -14 5 -11 20 12 11 17 20 37 20 46 0
8 11 25 25 37 13 11 34 44 46 72 12 27 28 50 35 50 8 0 14 9 14 19 0 11 4 21
8 23 13 5 72 120 72 140 0 10 4 18 8 18 13 0 32 48 32 81 0 27 18 53 82 121
10 10 23 18 30 18 7 0 22 12 34 28 l22 27 184 1 c166 0 188 2 241 23 33 13 55
26 50 30 -4 4 -46 14 -92 21 -148 23 -194 44 -207 95 -9 36 2 55 31 55 14 0
96 -11 181 -25 85 -14 157 -25 159 -25 2 0 7 -16 11 -35 3 -19 10 -35 15 -35
18 0 237 230 292 307 97 137 221 366 286 530 10 27 74 183 141 348 67 165 129
320 137 345 8 25 21 59 29 75 25 56 55 138 51 141 -3 3 -53 -101 -88 -184
l-14 -32 -245 5 c-148 3 -235 1 -220 -4 30 -11 86 -9 -825 -21 -610 -7 -702
-6 -716 7 -10 8 -22 43 -29 79 -7 35 -16 64 -20 64 -4 0 -12 -11 -18 -25 -6
-14 -16 -25 -22 -25 -5 0 -10 -11 -10 -24 0 -13 -3 -38 -6 -55 l-6 -31 -74 0
c-41 0 -74 1 -74 3 0 1 -9 27 -19 57 -12 38 -24 56 -37 58 -10 2 -24 10 -31
19 -9 11 -13 -1 -18 -61 l-7 -76 -37 -5 c-20 -3 -49 -8 -65 -10 -30 -5 -66 17
-66 40 0 20 -34 12 -47 -11 -11 -18 -25 -22 -115 -28 -165 -10 -350 -35 -533
-71 -294 -59 -489 -127 -770 -270 -992 -508 -2128 -1077 -2220 -1112 -73 -29
-81 -30 -98 -16 -9 9 -17 22 -17 29 0 7 -13 37 -29 66 -15 29 -56 107 -91 173
-62 118 -89 165 -100 175 -3 3 -18 25 -32 50 -36 62 -97 133 -161 188 -40 34
-97 42 -97 14 0 -11 3 -12 14 -3 11 9 20 9 34 2 22 -12 92 -90 92 -103 0 -18
-34 -6 -74 27 -53 43 -82 46 -90 7 -8 -45 -1 -97 16 -124 16 -25 16 -26 -3
-31 -14 -4 -36 6 -66 29 -66 51 -78 44 -77 -41 0 -39 4 -77 8 -86 14 -32 -23
-28 -75 7 -47 31 -54 33 -62 18 -5 -9 -7 -41 -4 -70 4 -37 2 -54 -6 -54 -8 0
-7 -4 1 -12 37 -37 -18 -43 -65 -7 -61 46 -68 40 -63 -46 2 -43 13 -64 24 -46
4 6 11 11 16 11 11 0 44 -60 37 -66 -3 -3 -28 9 -56 25 -42 25 -50 27 -41 12
17 -32 -8 -37 -56 -10 -56 30 -69 20 -59 -50 7 -49 7 -50 36 -44 22 4 29 2 29
-10 0 -8 3 -22 6 -31 11 -29 -27 -18 -74 21 -40 33 -43 34 -27 10 16 -24 16
-27 1 -27 -9 0 -16 -5 -16 -10 0 -6 -18 1 -39 14 -34 22 -41 23 -52 10 -17
-21 6 -125 27 -117 22 8 46 -5 37 -21 -4 -8 -75 -65 -158 -126 -82 -62 -164
-125 -180 -139 -17 -14 -51 -42 -75 -61 -320 -256 -797 -712 -1199 -1148 -52
-56 -96 -100 -98 -98 -4 4 19 33 77 96 8 9 40 45 70 81 30 35 60 70 67 77 7 7
13 16 13 20 0 10 -144 -145 -291 -312 -19 -22 -43 -49 -54 -62 -103 -115 -469
-569 -650 -805 -94 -122 -154 -203 -350 -474 -325 -449 -938 -1403 -1150
-1790 -15 -27 -42 -75 -60 -105 -90 -152 -375 -675 -507 -929 -18 -36 -39 -66
-47 -69 -8 -3 -11 0 -7 6 3 6 0 41 -7 79 -8 37 -15 85 -16 106 -1 20 -6 49
-12 64 -17 46 -52 405 -84 878 -14 209 -22 308 -46 560 -10 114 -14 152 -49
470 -19 179 -25 231 -50 415 -5 41 -19 149 -30 240 -12 91 -25 188 -30 215 -5
28 -21 131 -35 230 -14 99 -32 212 -40 250 -7 39 -19 102 -25 140 -7 39 -21
109 -31 156 -10 48 -19 102 -19 120 -1 19 -8 52 -16 74 -21 54 -32 100 -39
164 -3 29 -15 71 -26 93 -12 23 -21 64 -23 99 -2 50 -7 64 -29 85 -14 13 -31
24 -37 24 -14 0 -12 11 5 34 18 23 19 50 5 76 -8 16 -15 18 -36 10 -39 -15
-45 17 -9 48 26 22 27 26 17 56 -7 18 -12 52 -12 77 0 50 -14 99 -60 214 -41
102 -58 133 -97 173 -54 55 -99 41 -139 -44 -53 -112 -81 -246 -95 -458 -8
-114 -16 -175 -31 -213 -41 -111 -53 -59 -45 203 11 362 44 595 115 819 44
140 65 171 267 384 44 47 120 128 170 181 192 205 1543 1540 1566 1548 29 11
58 -32 99 -142 24 -64 49 -121 55 -126 9 -7 28 -7 61 2 47 13 85 42 131 104
13 16 36 46 53 68 16 21 30 47 30 57 0 10 24 46 53 81 29 35 84 103 122 153
38 49 89 109 112 133 38 38 74 91 73 107 -1 34 2 45 13 45 8 0 49 22 93 48 81
49 553 292 679 349 39 18 106 48 150 68 44 20 157 68 250 107 94 39 184 76
200 84 17 7 66 27 110 44 44 17 89 35 100 39 23 10 111 44 345 132 184 68 708
256 840 299 47 16 171 58 275 95 105 36 222 75 260 85 39 11 131 40 205 66
141 48 430 139 684 215 l149 44 24 54 c13 29 108 222 212 430 404 809 521 987
774 1185 199 155 508 266 744 266 256 0 542 -109 1363 -519 489 -245 711 -366
927 -508 l52 -34 393 80 c343 70 618 126 903 186 681 142 1434 342 1800 477
180 67 549 243 646 308 143 96 239 205 305 345 102 214 112 436 32 689 -43
137 -208 439 -291 532 -14 16 -60 74 -102 129 -141 186 -434 485 -636 650 -13
11 -63 52 -109 91 -78 64 -149 120 -300 231 -165 122 -402 273 -635 403 -96
54 -418 210 -433 210 -4 0 -20 7 -35 15 -94 49 -458 169 -647 214 -475 112
-964 129 -1475 50 -245 -38 -677 -133 -728 -160 -10 -6 -35 -13 -55 -15 -95
-12 -675 -219 -902 -322 -25 -11 -92 -41 -150 -67 -131 -59 -424 -208 -550
-280 -206 -117 -199 -113 -280 -164 -360 -227 -688 -467 -1070 -785 -156 -130
-163 -136 -345 -301 -389 -353 -809 -785 -1240 -1275 -115 -131 -180 -204
-215 -246 -14 -16 -64 -74 -111 -129 -47 -55 -128 -152 -180 -215 -115 -140
-134 -162 -180 -214 -19 -23 -50 -61 -69 -86 -19 -25 -37 -47 -40 -50 -3 -3
-44 -52 -90 -110 -46 -58 -107 -133 -135 -167 -27 -33 -66 -83 -85 -109 -19
-26 -42 -54 -50 -62 -8 -9 -22 -26 -30 -38 -8 -13 -49 -66 -90 -119 -41 -53
-88 -113 -105 -135 -110 -142 -154 -199 -185 -241 -19 -26 -57 -77 -85 -113
-27 -37 -74 -99 -103 -138 -29 -40 -56 -75 -60 -78 -4 -3 -25 -32 -47 -65 -22
-32 -49 -69 -60 -82 -11 -12 -31 -38 -45 -57 -14 -20 -28 -36 -33 -36 -12 0
29 69 62 106 17 18 40 51 51 72 11 21 28 47 38 58 9 10 24 32 32 47 8 16 24
38 35 50 11 12 29 36 39 52 11 17 25 34 33 38 7 4 13 12 13 17 0 5 14 24 31
42 17 18 42 53 56 78 15 25 38 59 53 75 15 17 40 50 57 75 56 85 80 119 96
135 9 8 31 36 48 60 18 25 36 45 41 45 4 0 8 5 8 11 0 6 22 39 48 73 26 33 62
81 79 106 17 25 40 56 52 69 12 13 21 27 21 30 0 3 12 20 28 36 15 17 45 54
67 83 21 28 43 52 47 52 5 0 12 8 16 18 7 19 116 159 180 232 17 21 32 40 32
44 0 4 14 20 30 36 17 16 30 32 30 35 0 5 48 66 148 186 29 35 87 107 128 159
41 52 85 106 98 120 12 14 60 70 106 125 69 82 300 349 468 540 19 22 78 87
132 145 53 58 121 132 151 164 312 343 764 785 1128 1101 343 297 846 679
1141 865 186 118 324 203 373 231 33 19 71 41 85 50 32 19 130 73 187 102 22
12 47 27 55 33 16 13 592 302 695 349 33 15 98 45 145 67 379 179 925 392
1335 521 129 41 426 125 505 142 30 7 117 27 193 44 619 141 1418 195 2027
135 859 -84 1549 -237 2760 -611 223 -69 461 -142 530 -163 69 -21 195 -61
280 -88 161 -53 313 -99 511 -157 112 -33 271 -83 334 -106 35 -12 361 -113
450 -139 33 -9 175 -51 315 -93 573 -170 905 -263 1395 -388 368 -94 892 -204
1400 -294 264 -47 285 -52 285 -70 0 -18 4 -18 51 -5 27 8 64 6 138 -5 55 -8
131 -18 168 -21 38 -3 71 -8 75 -10 12 -8 285 -33 483 -45 135 -8 371 -10 735
-6 525 6 877 18 1715 62 55 3 192 10 305 15 113 6 291 15 395 20 444 23 1624
83 2460 125 495 24 981 49 1080 55 99 5 190 10 203 10 l22 0 0 8255 0 8255
-8215 0 -8215 0 0 -22 c0 -13 -9 -38 -20 -55 -15 -25 -27 -33 -48 -33 -39 0
-52 17 -52 67 l0 43 -7185 0 c-6075 0 -7184 -2 -7179 -14 6 -15 -20 -24 -49
-18 -18 4 -18 4 0 18 15 11 -140 13 -1055 14 -728 0 -1071 -3 -1067 -10 4 -6
-9 -17 -28 -25 -19 -8 -52 -32 -73 -55 -30 -31 -46 -40 -71 -40 -27 0 -35 5
-44 27 -5 15 -6 30 -1 35 5 5 7 22 4 38 l-4 30 -10849 0 -10849 0 0 -15759z
m40034 15540 c9 -10 20 -32 25 -47 4 -19 19 -35 41 -46 19 -10 41 -28 49 -42
14 -23 13 -26 -17 -60 -18 -20 -32 -47 -32 -59 0 -12 -13 -37 -29 -56 -23 -28
-33 -33 -54 -28 -25 7 -36 25 -87 142 -11 28 -35 64 -51 81 -26 27 -29 35 -20
53 12 22 114 80 142 81 9 0 24 -9 33 -19z m-969 -76 c11 -3 44 -22 74 -45 29
-22 61 -40 70 -40 37 0 53 -35 56 -120 2 -78 1 -83 -27 -111 -29 -28 -32 -29
-110 -25 -67 3 -80 2 -85 -12 -13 -37 -44 -70 -70 -76 -16 -3 -39 -16 -53 -29
-31 -28 -70 -106 -70 -140 0 -52 -17 -74 -87 -110 -37 -19 -89 -46 -114 -59
-26 -14 -58 -28 -70 -31 -28 -8 -79 -50 -79 -66 0 -21 -20 -11 -35 19 -8 16
-15 53 -15 82 0 40 -6 62 -25 90 -19 28 -25 50 -25 88 0 58 15 80 54 80 19 0
26 5 26 19 0 21 -12 27 -82 36 -62 9 -96 45 -95 100 0 22 -9 61 -21 87 -28 59
-28 80 1 114 21 24 28 26 102 25 53 0 101 6 140 18 70 22 94 16 133 -31 79
-96 126 -132 155 -116 18 9 19 16 12 92 -11 109 -11 144 3 158 24 24 121 25
237 3z m-18213 -62 c25 -23 23 -40 -9 -60 -16 -9 -42 -31 -60 -49 -27 -28 -32
-40 -31 -83 0 -85 -63 -157 -90 -103 -5 9 -10 50 -11 90 -2 119 31 200 87 213
51 12 95 9 114 -8z m15329 -24 c17 -33 -2 -63 -68 -106 -84 -55 -89 -56 -112
-27 -19 24 -19 29 -6 54 17 33 119 100 152 100 13 0 27 -9 34 -21z m3248 -53
c16 -17 20 -30 16 -49 -9 -34 8 -63 42 -72 15 -3 46 -24 70 -46 l42 -39 -24
-27 c-22 -27 -25 -27 -57 -14 -69 28 -95 26 -125 -10 -75 -88 -90 -95 -107
-46 -8 22 -6 29 17 47 15 12 27 28 27 35 0 15 34 38 43 29 8 -8 47 47 47 66 0
25 -26 43 -51 37 -20 -5 -21 -3 -16 39 8 74 36 92 76 50z m-17911 -232 c34
-24 30 -86 -8 -135 -41 -51 -60 -55 -106 -24 -46 31 -54 42 -54 75 0 72 108
126 168 84z m14265 -284 c3 -10 -1 -27 -9 -37 -7 -10 -14 -28 -14 -40 0 -29
41 -40 85 -24 66 24 111 2 82 -39 -31 -44 -59 -55 -162 -62 -55 -3 -114 -9
-131 -13 -46 -10 -74 29 -74 101 0 49 2 55 30 69 16 8 35 15 43 15 7 0 28 11
47 25 42 31 95 34 103 5z m-14872 -110 c25 -14 26 -71 2 -92 -27 -24 -92 -48
-130 -48 -39 0 -83 37 -83 70 0 25 32 58 62 64 13 3 32 7 43 9 39 9 87 7 106
-3z m17506 -498 c13 -6 37 -12 54 -12 17 0 43 -7 58 -16 33 -19 71 -76 71
-105 0 -26 -28 -127 -41 -149 -48 -82 -51 -91 -45 -166 3 -40 8 -79 11 -86 4
-13 -37 -68 -51 -68 -4 0 -30 -18 -58 -39 -28 -22 -76 -47 -106 -56 -30 -9
-68 -21 -84 -26 -22 -7 -35 -5 -52 6 -37 24 -96 87 -142 151 -23 32 -54 74
-68 91 -34 43 -27 83 14 83 38 0 112 -48 142 -93 26 -40 55 -53 93 -43 32 8
52 47 38 74 -6 11 -11 43 -11 71 0 40 -4 53 -22 66 -20 13 -42 49 -114 181
-20 38 -13 89 17 128 18 22 28 26 77 26 60 1 81 10 101 49 l13 23 41 -38 c23
-22 52 -45 64 -52z m-1622 -48 c27 -29 28 -26 -27 -92 -15 -18 -31 -44 -34
-57 -7 -30 -31 -32 -59 -5 -11 10 -30 28 -42 40 -35 31 -28 47 32 81 30 17 55
35 55 39 0 7 18 15 43 19 4 0 19 -11 32 -25z m-18265 -24 c35 -35 24 -72 -31
-100 -47 -24 -57 -25 -81 -3 -25 23 -22 63 7 96 31 33 76 36 105 7z m7272
-244 c14 -20 8 -35 -20 -51 -18 -11 -34 -34 -45 -64 -9 -25 -25 -56 -37 -68
-11 -12 -20 -25 -20 -29 0 -13 -33 -44 -46 -44 -7 0 -15 14 -19 30 -10 47 28
116 129 232 16 18 44 15 58 -6z m16788 -93 c0 -33 -33 -94 -71 -133 -27 -26
-38 -31 -62 -26 -39 8 -39 8 -32 49 7 37 95 137 121 137 8 0 14 5 14 11 0 8 5
8 15 -1 8 -7 15 -23 15 -37z m-23012 -52 c26 -23 28 -49 5 -89 -16 -28 -52
-57 -157 -125 -27 -18 -52 -39 -56 -47 -31 -69 -49 -97 -73 -110 -28 -15 -29
-14 -63 25 -27 31 -34 47 -32 75 l3 35 -54 -3 c-30 -2 -65 -8 -79 -13 -19 -7
-29 -6 -43 7 -28 25 -24 66 9 97 35 34 138 87 168 87 28 0 74 -20 74 -32 0
-17 33 -7 78 25 52 36 159 86 182 86 8 0 25 -8 38 -18z m19417 -40 c-3 -6 -12
-11 -18 -11 -7 0 -21 -18 -31 -41 -17 -35 -18 -44 -7 -72 24 -59 24 -73 -4
-116 -24 -35 -26 -47 -20 -87 6 -40 3 -49 -16 -70 -12 -13 -30 -24 -38 -24
-14 -1 -14 -3 2 -14 24 -19 21 -36 -7 -36 -38 0 -56 10 -72 41 -13 25 -20 29
-60 29 -44 0 -77 -15 -120 -52 -53 -47 -127 -13 -104 46 12 32 1 63 -33 96
-23 22 -24 25 -9 36 10 6 31 15 49 18 42 10 83 42 83 67 0 11 8 23 18 26 16 6
190 102 222 123 28 18 65 33 115 45 54 13 61 12 50 -4z m-11611 -37 c26 -10
18 -40 -22 -84 -29 -32 -45 -42 -72 -43 -27 -2 -37 3 -49 26 -16 27 -15 29 14
53 56 44 97 60 129 48z m-8364 -264 c42 -42 20 -86 -55 -110 -22 -7 -46 -19
-54 -27 -9 -9 -23 -12 -40 -8 -40 10 -53 25 -46 54 8 33 21 48 69 83 47 34 97
37 126 8z m3648 -89 c45 -39 12 -131 -48 -131 -42 0 -59 9 -75 41 -19 35 -9
63 30 89 37 25 64 25 93 1z m-3533 -73 c39 -18 42 -51 10 -119 -16 -32 -26
-61 -23 -65 4 -3 25 -8 48 -11 25 -4 46 -13 53 -25 7 -10 29 -21 49 -24 82
-14 84 -69 3 -99 -37 -15 -47 -15 -61 -4 -9 7 -37 14 -62 15 -56 3 -153 24
-167 36 -5 4 -8 28 -6 53 2 39 -1 49 -22 65 -36 28 -40 68 -11 97 13 12 29 23
37 23 8 0 21 7 28 17 17 20 70 53 86 53 7 0 24 -5 38 -12z m19959 -3 c45 -19
51 -33 31 -71 -8 -16 -15 -37 -15 -46 0 -29 -12 -48 -30 -48 -21 0 -60 57 -60
88 0 12 -5 33 -12 47 -20 44 19 58 86 30z m-18029 -76 c10 -10 -22 -119 -35
-119 -4 0 -11 -10 -17 -23 -6 -13 -39 -37 -78 -57 l-67 -34 -19 25 c-36 46
-36 48 18 156 28 55 157 89 198 52z m-2828 -76 c4 -10 11 -21 16 -24 17 -12
-13 -77 -54 -113 -44 -41 -66 -44 -100 -17 l-23 18 18 47 c29 75 126 135 143
89z m3966 -55 c23 -27 22 -43 -5 -68 -46 -43 -105 -38 -126 10 -18 39 -11 56
30 74 40 17 77 11 101 -16z m-2231 -98 c41 -12 103 -76 110 -115 4 -20 -3 -30
-36 -52 -23 -15 -43 -30 -46 -33 -10 -11 -78 -40 -94 -40 -9 0 -18 -12 -21
-32 -5 -23 -20 -44 -49 -67 -24 -18 -50 -48 -60 -65 -9 -18 -39 -47 -66 -64
-35 -23 -56 -46 -70 -77 -40 -87 -129 -114 -160 -48 -8 18 -22 33 -31 33 -27
0 -69 40 -69 64 0 15 15 36 40 57 23 20 39 41 37 50 -3 11 4 15 27 15 22 0 49
14 90 45 32 24 86 60 119 79 l62 35 -3 48 c-3 41 1 55 33 102 46 70 100 89
187 65z m3239 0 c10 -6 19 -20 19 -30 0 -21 -129 -160 -148 -160 -15 0 -42 40
-42 62 0 26 38 84 67 103 21 14 46 24 81 34 2 1 12 -4 23 -9z m-4490 -92 c13
-18 27 -36 32 -39 5 -4 4 -16 -3 -28 -8 -16 -8 -26 -1 -35 9 -10 5 -17 -13
-30 -35 -22 -60 -21 -53 3 3 14 -3 23 -25 32 -16 6 -35 21 -43 32 -12 17 -11
23 8 53 20 31 34 40 64 43 6 0 22 -14 34 -31z m19442 -375 c13 -15 14 -29 5
-93 -12 -92 -12 -96 -3 -190 10 -107 38 -140 93 -111 9 4 45 11 79 14 l62 5
-24 -66 c-13 -37 -31 -71 -38 -77 -8 -6 -26 -28 -40 -49 -24 -35 -25 -40 -13
-65 39 -73 125 -95 179 -45 15 14 43 28 62 31 19 3 35 10 35 15 0 6 8 7 18 3
34 -13 173 -36 182 -30 10 6 14 -7 11 -33 -1 -8 -40 -69 -87 -136 -82 -120
-157 -193 -194 -188 -10 1 -11 -1 -2 -4 31 -14 -3 -106 -63 -170 -5 -6 -32
-44 -60 -83 -33 -46 -59 -73 -75 -77 -14 -3 -34 -9 -45 -14 -44 -18 -85 -29
-85 -21 0 5 -69 11 -152 14 -113 3 -161 9 -183 21 -16 9 -38 16 -47 16 -9 0
-20 9 -23 20 -8 25 18 70 40 70 36 0 62 91 45 163 -5 25 -7 53 -4 61 23 59
147 -53 189 -169 18 -53 66 -105 96 -105 25 0 69 46 69 72 0 24 24 134 41 186
9 29 8 36 -19 66 -16 18 -38 53 -50 78 -28 58 -69 87 -141 100 l-59 11 -37
-37 c-32 -32 -41 -36 -68 -31 -76 15 -80 20 -46 51 34 31 61 101 53 137 -4 18
-6 37 -5 42 2 6 5 17 6 25 4 29 17 50 30 50 8 0 16 8 20 18 7 23 32 35 105 52
101 23 109 33 91 125 -8 39 -11 90 -7 123 4 41 2 65 -9 86 -21 40 -20 125 3
142 24 18 46 17 65 -3z m-17029 -69 c37 -36 3 -104 -51 -104 -16 0 -52 -7 -82
-15 -88 -23 -158 -29 -191 -15 -30 12 -39 33 -20 45 6 4 8 10 5 15 -8 13 36
40 65 40 14 0 59 11 100 24 89 29 152 32 174 10z m-1789 -212 c17 -5 37 -20
45 -36 15 -26 14 -28 -20 -56 -19 -16 -40 -30 -46 -30 -6 0 -38 -13 -70 -30
-32 -16 -65 -30 -72 -30 -8 0 -28 -10 -44 -22 -25 -17 -44 -21 -95 -20 -35 0
-71 6 -79 12 -21 18 -17 63 8 96 42 54 53 62 128 99 71 34 79 36 145 31 39 -4
84 -10 100 -14z m3521 -196 c8 -8 14 -31 14 -51 0 -37 -16 -64 -106 -178 -23
-29 -49 -67 -58 -86 -24 -46 -101 -121 -125 -121 -10 0 -29 8 -41 18 -17 14
-20 23 -15 45 4 15 15 33 24 40 26 19 72 93 125 200 26 53 61 108 78 122 33
28 82 33 104 11z m514 -76 c0 -4 -9 -15 -20 -25 -11 -10 -20 -24 -20 -32 0 -7
-5 -13 -11 -13 -5 0 -7 -5 -4 -11 4 -6 22 -8 44 -4 34 5 40 3 56 -21 19 -30
27 -17 -66 -112 -18 -18 -39 -30 -47 -27 -7 3 -17 5 -22 5 -4 0 -13 13 -19 29
-11 24 -9 35 9 75 12 25 20 52 17 60 -10 25 9 71 33 83 23 11 50 8 50 -7z
m-4099 -144 c20 -43 4 -72 -48 -90 -85 -29 -153 -12 -153 38 0 48 48 73 143
75 41 1 49 -2 58 -23z m1973 -96 c55 -21 36 -150 -22 -150 -41 0 -72 36 -72
86 0 43 10 58 45 67 11 2 21 5 22 6 1 0 13 -3 27 -9z m2310 -11 c20 -29 12
-43 -49 -84 -74 -49 -125 -45 -125 10 0 26 49 75 76 75 10 0 26 5 34 10 24 16
48 12 64 -11z m-3616 -15 c20 -13 22 -22 19 -80 -2 -36 -9 -70 -15 -76 -9 -9
-12 -7 -12 10 0 23 -16 30 -22 11 -2 -7 -29 -12 -63 -13 l-60 -1 1 49 c0 45 4
53 39 83 42 36 78 42 113 17z m-274 -425 c55 -43 25 -92 -88 -140 -60 -26 -71
-28 -94 -16 -15 6 -28 20 -30 30 -6 32 126 143 174 146 6 1 23 -8 38 -20z
m18406 -169 c0 -5 18 -10 40 -10 24 0 40 5 40 12 0 9 3 9 12 0 7 -7 25 -12 40
-12 39 0 39 -39 -1 -63 -15 -9 -30 -14 -33 -11 -3 2 -31 -5 -62 -17 -45 -16
-60 -18 -71 -9 -8 7 -15 18 -15 25 0 18 -24 35 -51 36 -13 0 -61 -2 -107 -6
-104 -9 -134 -2 -130 28 2 15 12 24 33 28 51 11 305 10 305 -1z m-1971 -37
c15 -14 22 -33 25 -78 2 -33 7 -72 11 -87 6 -23 2 -28 -30 -44 -20 -9 -47 -34
-60 -55 -14 -20 -35 -41 -47 -44 -41 -13 -88 -55 -88 -79 0 -26 -36 -64 -66
-69 -26 -4 -83 -52 -113 -94 -12 -18 -31 -33 -42 -33 -10 0 -50 22 -87 49 -38
27 -78 52 -90 55 -25 8 -29 42 -9 66 12 15 58 34 113 45 24 5 38 1 60 -18 51
-43 71 -49 101 -35 21 10 30 25 39 63 18 80 31 104 66 124 18 11 38 24 44 29
6 5 20 13 32 16 35 12 55 59 42 104 -14 51 -15 48 27 77 45 30 45 30 72 8z
m-18691 -200 c23 -4 34 -12 38 -29 16 -64 -34 -88 -181 -85 -124 2 -139 9
-129 59 13 64 109 83 272 55z m1083 -159 c18 -51 -40 -92 -132 -93 -59 -1 -73
14 -56 58 9 25 21 35 57 46 65 20 121 16 131 -11z m-897 -673 c29 -28 50 -75
43 -96 -8 -20 -62 -41 -128 -47 -30 -4 -86 -14 -123 -23 -37 -9 -73 -14 -81
-11 -47 17 28 136 115 182 58 31 138 29 174 -5z m162 -632 c3 -6 -2 -28 -11
-50 -14 -30 -26 -41 -54 -49 -47 -13 -62 -12 -83 4 -32 24 -19 69 27 94 26 15
112 15 121 1z m-401 -865 c15 -9 25 -26 25 -39 0 -18 -11 -27 -54 -44 -29 -12
-66 -35 -81 -51 -32 -34 -79 -47 -100 -30 -8 7 -15 29 -15 49 0 41 26 67 110
108 55 26 83 28 115 7z m-306 -213 c27 -38 26 -55 -4 -75 -27 -18 -34 -39 -10
-30 26 10 61 -5 73 -32 28 -59 -45 -115 -98 -75 -20 15 -25 27 -23 60 l2 41
-37 -17 c-58 -25 -157 -39 -188 -25 -21 10 -25 18 -22 49 2 31 10 42 45 65 23
16 63 32 90 37 26 6 59 14 73 20 47 18 77 13 99 -18z m498 -528 c24 -16 26
-16 39 1 12 17 14 17 29 2 18 -17 12 -36 -10 -36 -8 0 -21 -13 -30 -30 -9 -16
-20 -30 -25 -30 -6 0 -10 -7 -10 -15 0 -20 -41 -35 -88 -34 -59 1 -113 22
-135 51 -17 23 -19 31 -9 53 7 14 27 32 45 40 46 20 161 19 194 -2z m1074 -65
c29 -10 109 -78 109 -93 0 -3 -28 -5 -62 -5 -46 0 -71 -6 -93 -20 -16 -11 -45
-20 -62 -20 -31 0 -33 2 -33 33 0 39 21 72 64 98 37 22 34 22 77 7z m-9431
-18 c411 -20 658 -32 1010 -50 107 -5 434 -21 725 -35 516 -25 879 -42 1350
-66 167 -8 238 -16 260 -27 27 -14 28 -16 10 -22 -11 -4 -29 -4 -40 0 -11 4
-92 10 -180 14 -88 4 -290 13 -450 21 -572 29 -915 45 -1235 60 -179 8 -415
19 -525 25 -110 6 -297 15 -415 20 -118 6 -294 15 -390 20 -515 27 -855 34
-1090 21 -428 -23 -763 -80 -943 -161 -27 -12 -51 -20 -53 -17 -8 8 101 55
197 87 176 58 380 93 689 119 179 15 670 11 1080 -9z m8519 -234 c10 -12 9
-17 -9 -26 -11 -6 -24 -9 -29 -6 -5 3 -20 -9 -34 -27 -35 -46 -145 -101 -186
-92 -18 4 -33 15 -37 28 -14 46 133 137 222 137 23 0 33 4 28 11 -9 16 29 -6
45 -25z m-829 -146 c107 -6 299 -15 425 -20 127 -5 304 -14 395 -19 201 -12
467 -26 910 -46 184 -8 405 -19 490 -25 197 -13 283 -17 670 -35 708 -33 1102
-82 1500 -186 126 -33 343 -103 369 -120 20 -13 -2 -7 -124 32 -105 33 -249
73 -320 89 -179 41 -519 86 -855 115 -252 21 -274 23 -945 55 -743 36 -1172
58 -1285 65 -47 3 -177 10 -290 15 -113 5 -248 12 -300 15 -52 3 -223 12 -380
20 -157 8 -332 17 -390 20 -58 4 -118 6 -133 5 -38 -1 -51 8 -36 26 8 10 25
13 58 9 25 -3 134 -10 241 -15z m-3984 -30 c175 -10 985 -49 1434 -70 124 -6
497 -24 830 -40 333 -16 754 -36 935 -45 388 -17 445 -23 445 -45 0 -14 -58
-29 -92 -25 -18 3 -150 9 -293 15 -143 6 -296 13 -340 15 -69 5 -1368 65
-1680 79 -60 3 -254 12 -430 21 -176 9 -480 24 -675 34 -359 17 -400 23 -400
58 0 16 30 16 266 3z m1458 -2495 c464 -20 578 -27 569 -34 -4 -4 -98 -4 -208
0 -456 18 -687 29 -696 34 -19 12 -9 27 14 20 12 -4 157 -13 321 -20z m-749
-25 c4 -6 25 -20 48 -32 47 -24 -33 -20 962 -57 314 -12 593 -26 620 -30 l50
-8 -55 -2 c-30 0 -161 3 -290 9 -129 5 -467 19 -750 30 -552 22 -571 24 -605
76 -13 21 -13 24 -1 24 8 0 18 -5 21 -10z m-850 -436 c156 -132 307 -208 525
-265 105 -28 90 -36 -27 -14 -147 27 -289 87 -408 172 -58 41 -165 149 -165
166 0 8 3 8 8 2 4 -6 34 -33 67 -61z m-6053 -1759 c-5 -63 -10 -71 -50 -83
-123 -35 -220 -38 -208 -6 13 33 -121 -10 -273 -88 -117 -60 -93 -38 31 30
172 93 301 147 423 178 74 18 80 15 77 -31z m43138 -465 c677 -11 1236 -24
1755 -40 1399 -44 1737 -62 1015 -54 -250 2 -606 9 -790 14 -491 14 -1445 19
-1830 10 -184 -4 -605 -13 -935 -19 -605 -12 -658 -15 -1595 -86 -107 -8 -287
-22 -400 -30 -113 -9 -288 -22 -390 -30 -102 -8 -288 -22 -415 -30 -226 -16
-331 -29 -1010 -120 -1669 -224 -1802 -243 -1845 -255 -19 -6 -159 -40 -310
-76 -262 -62 -459 -110 -725 -174 -661 -160 -836 -200 -877 -200 -26 0 -271
39 -463 74 -183 34 -711 111 -925 136 -886 104 -1517 105 -2235 5 -93 -13
-173 -21 -177 -19 -4 3 -8 11 -8 19 0 14 15 18 245 64 732 149 1456 265 2350
377 844 105 1569 177 2550 254 514 39 820 59 1550 100 161 9 636 29 1050 45
562 22 1228 36 1905 42 432 3 786 6 787 7 6 4 1199 -6 1723 -14z m-4812 -1050
c68 -4 147 -15 175 -24 179 -51 253 -74 432 -131 110 -35 245 -75 300 -90 55
-15 123 -38 150 -50 28 -13 226 -91 440 -174 553 -212 1065 -418 1102 -444 36
-24 35 -32 -5 -40 -22 -4 -37 -22 -72 -83 -25 -43 -56 -112 -71 -153 -14 -42
-35 -97 -46 -122 -12 -26 -24 -61 -28 -78 -6 -30 -10 -32 -183 -86 -97 -31
-211 -67 -252 -80 -41 -13 -142 -45 -225 -71 -82 -25 -208 -65 -279 -87 l-128
-41 73 -18 c41 -10 83 -18 94 -19 12 0 15 -3 7 -6 -8 -3 -64 6 -125 21 -62 14
-181 39 -266 56 -85 16 -157 33 -160 38 -3 5 -35 13 -71 17 -36 4 -198 40
-360 80 -162 39 -347 84 -410 99 -152 36 -303 78 -478 132 -78 24 -154 46
-167 48 -14 3 -29 7 -35 11 -8 5 -258 83 -285 89 -5 1 -84 26 -175 55 -91 29
-223 71 -295 93 -184 58 -172 50 -167 113 4 45 1 56 -18 75 -43 43 -222 12
-203 -36 2 -7 -5 -15 -16 -19 -24 -7 -83 20 -80 38 5 30 -27 71 -117 151 -103
90 -137 104 -174 71 -22 -20 -185 -28 -201 -9 -12 15 26 74 48 74 7 0 13 4 13
9 0 18 67 48 121 54 37 3 81 18 127 42 64 34 70 40 70 69 0 17 3 45 7 63 6 27
2 39 -25 73 -54 68 -157 120 -238 120 -53 0 -55 -18 -12 -88 39 -64 39 -87 -2
-108 -40 -20 -48 -31 -48 -66 0 -35 -26 -43 -81 -24 -24 8 -57 16 -74 18 -29
3 -30 5 -38 66 -6 47 -14 71 -33 90 -30 33 -57 114 -40 124 12 7 190 25 321
32 44 3 119 8 166 12 101 8 119 1 187 -78 37 -43 42 -54 42 -98 0 -71 31 -126
76 -134 43 -9 88 11 92 41 2 12 -4 36 -13 54 l-17 32 24 -8 c32 -11 310 -6
325 6 22 19 85 -3 130 -44 24 -22 52 -41 61 -42 10 0 23 -4 30 -9 6 -4 12 -3
12 3 0 12 -43 46 -80 63 -35 15 -40 25 -29 56 15 39 79 24 79 -20 0 -23 34
-40 73 -36 30 3 34 -1 58 -50 14 -29 31 -58 38 -65 7 -7 41 -12 89 -12 77 0
77 0 80 -27 5 -46 90 -100 175 -112 26 -4 47 -12 47 -17 0 -6 15 -9 33 -7 31
3 32 4 38 63 11 99 10 230 -2 242 -14 14 -71 -3 -163 -48 -63 -31 -70 -32 -94
-18 -15 8 -33 31 -40 52 -14 35 -13 40 14 95 25 48 28 62 19 87 -5 17 -14 33
-20 37 -15 11 -85 9 -85 -2 0 -5 -11 -10 -24 -10 -14 0 -38 -11 -54 -25 -37
-31 -39 -31 -103 1 l-53 27 46 42 c45 41 48 42 135 48 48 4 212 12 363 17 151
6 282 13 290 14 30 7 138 5 258 -4z m-36318 -560 c201 -5 723 -19 1160 -30
437 -11 966 -25 1175 -30 410 -11 1673 -44 2320 -60 533 -13 1106 -28 1345
-35 259 -7 821 -22 1550 -40 1002 -25 1360 -35 1750 -45 206 -6 724 -19 1150
-30 426 -10 845 -22 930 -25 932 -36 1736 -171 1899 -319 31 -28 45 -65 30
-82 -9 -11 -8 -20 4 -37 9 -13 19 -40 22 -61 9 -47 -4 -47 -79 -2 -172 104
-757 219 -1216 241 -446 21 -573 27 -700 36 -179 13 -289 17 -595 24 -526 11
-645 15 -770 21 -71 3 -240 6 -375 7 -144 0 -220 3 -185 7 64 7 -143 13 -512
14 -105 1 -189 4 -187 7 2 3 -164 9 -369 12 -205 4 -595 14 -867 22 -272 8
-783 21 -1135 29 -352 9 -721 18 -820 21 -99 3 -364 10 -590 15 -225 6 -574
15 -775 20 -201 6 -903 24 -1560 40 -1645 41 -1917 48 -2365 61 -568 17 -1234
15 -1480 -5 -431 -34 -672 -78 -805 -146 l-40 -20 0 30 c0 17 8 45 17 63 9 18
16 43 14 57 -10 113 278 191 844 230 304 20 703 24 1215 10z m-6852 -1366 c56
-11 54 -60 -3 -87 -46 -22 -143 -22 -173 -1 -17 12 -21 21 -16 42 4 15 13 33
22 40 17 13 117 16 170 6z m37286 -59 c13 -14 29 -25 36 -25 7 0 23 -11 36
-25 13 -14 27 -25 32 -25 4 0 23 -16 42 -35 19 -19 37 -35 41 -35 4 0 21 -12
37 -27 51 -48 83 -73 95 -73 7 0 -13 23 -42 50 -30 28 -51 50 -47 50 5 0 18
-10 30 -23 11 -12 37 -34 56 -50 28 -21 32 -29 21 -36 -11 -7 -9 -14 15 -35
16 -14 35 -26 43 -26 7 0 2 9 -13 21 -14 11 -26 25 -26 30 0 6 16 -2 35 -17
19 -14 32 -31 28 -37 -3 -5 -1 -7 4 -4 12 8 244 -224 358 -358 205 -239 376
-516 439 -711 88 -269 71 -514 -50 -696 -44 -66 -137 -158 -160 -158 -7 0 -15
-7 -18 -16 -3 -8 -11 -12 -17 -8 -9 5 -8 10 3 18 17 13 97 120 117 156 43 80
71 139 71 151 0 11 2 11 8 2 5 -8 8 3 9 25 0 20 6 60 11 87 31 145 -4 365 -80
515 -15 30 -28 58 -28 63 0 5 -13 29 -30 54 -16 24 -30 47 -30 51 0 9 -20 37
-64 88 -15 19 -25 34 -22 34 3 0 -13 20 -37 45 -23 24 -62 68 -87 96 -59 68
-131 139 -141 139 -4 0 -16 14 -26 30 -9 17 -26 33 -38 36 -22 7 -85 68 -85
83 0 5 -9 12 -20 16 -11 3 -26 18 -33 33 -7 15 -19 26 -25 24 -7 -1 -18 9 -24
23 -6 14 -15 25 -20 25 -12 0 -38 26 -38 37 0 4 -18 28 -40 53 -24 26 -39 52
-36 62 2 10 -1 15 -9 12 -22 -9 -162 146 -150 166 3 5 0 7 -7 5 -14 -6 -138
116 -138 134 0 6 -9 11 -21 11 -11 0 -17 5 -14 10 10 16 24 12 49 -15z
m-36459 -220 c61 -22 75 -32 75 -56 0 -58 -159 -68 -216 -14 -17 16 -26 53
-19 76 6 18 13 20 58 16 29 -2 75 -13 102 -22z m2908 -147 c74 -38 -122 -123
-199 -86 -37 17 -44 58 -15 87 19 19 29 21 109 15 48 -4 95 -11 105 -16z m577
-88 c15 -59 -15 -82 -129 -102 l-71 -12 -30 29 c-35 33 -36 38 -14 59 10 10
34 16 67 17 29 0 72 8 97 19 57 23 73 21 80 -10z m-1190 -222 c45 -49 35 -98
-30 -143 -25 -17 -49 -25 -79 -25 -38 0 -43 3 -56 32 -13 32 -12 34 25 74 21
23 43 51 49 63 16 29 64 28 91 -1z m758 -150 c20 -20 14 -54 -12 -68 -29 -15
-104 -6 -151 17 -41 21 -41 20 -20 43 15 17 31 20 95 20 46 0 81 -5 88 -12z
m6507 -1378 c336 -5 972 -14 1415 -19 443 -6 947 -13 1120 -16 173 -3 644 -10
1045 -15 402 -5 939 -12 1195 -15 256 -4 489 -10 517 -15 55 -10 157 -49 149
-58 -3 -3 -25 2 -48 11 -78 29 -188 36 -658 42 -501 6 -2076 29 -3120 45
-2115 32 -2685 38 -2725 27 -16 -5 -27 -5 -23 -2 27 27 221 30 1133 15z
m26145 -55 c0 -9 -54 -54 -65 -55 -6 0 -24 -16 -40 -36 -78 -95 -129 -129
-218 -145 -74 -14 -97 -9 -97 21 0 26 37 82 74 111 58 46 346 132 346 104z
m-25455 -1525 l50 -24 1340 -13 c737 -7 1354 -11 1370 -9 l30 5 -33 -15 c-29
-13 -171 -13 -1100 -4 -1737 16 -1620 14 -1668 38 -23 12 -44 28 -48 37 -3 9
-3 15 1 13 5 -2 31 -15 58 -28z m8979 -940 c-4 -16 -2 -36 4 -42 17 -21 44
-177 56 -323 29 -346 35 -1065 15 -2090 -5 -286 -12 -675 -15 -865 -3 -190 -8
-347 -10 -349 -2 -2 -4 187 -4 420 0 520 -23 875 -62 984 -6 17 -15 71 -20
120 -6 50 -17 135 -25 190 -8 55 -17 124 -20 153 -2 28 -9 52 -14 52 -6 0 -10
21 -10 48 1 74 -18 342 -24 352 -5 8 -17 390 -16 490 1 169 25 534 39 590 9
41 12 62 18 140 5 72 6 77 47 117 23 23 43 42 44 43 1 0 0 -13 -3 -30z m14992
-2946 c22 -9 42 -21 47 -28 5 -7 13 -3 26 13 17 23 23 24 58 15 31 -7 38 -13
38 -33 0 -21 -8 -27 -52 -40 -51 -15 -53 -16 -53 -52 0 -42 -9 -51 -67 -68
-34 -9 -49 -9 -75 2 -31 13 -33 17 -36 69 -2 35 3 71 14 97 18 47 37 51 100
25z m-216 -104 c0 -79 0 -80 -25 -80 -28 0 -79 -23 -108 -48 -16 -14 -19 -14
-27 -2 -16 24 -12 180 3 186 8 3 38 1 69 -4 48 -7 57 -6 67 10 6 10 13 18 16
18 3 0 5 -36 5 -80z m-11457 -2112 c41 -57 84 -234 93 -380 4 -73 2 -88 -10
-88 -28 0 -53 56 -80 180 -15 69 -36 156 -47 195 -21 76 -25 120 -9 110 6 -3
10 -1 10 4 0 21 19 11 43 -21z m-179 -1335 c58 -53 70 -101 74 -285 3 -118 1
-168 -7 -168 -6 0 -11 -11 -11 -25 0 -14 -4 -25 -10 -25 -5 0 -10 10 -10 23 0
13 -4 27 -10 33 -5 5 -18 47 -29 94 -12 47 -34 135 -51 195 -32 121 -36 155
-18 173 19 19 41 14 72 -15z m24 -1105 c37 -50 92 -162 92 -187 0 -6 -12 -11
-28 -11 -24 0 -31 9 -67 83 -63 131 -72 167 -45 167 5 0 27 -24 48 -52z m352
-756 c20 -16 23 -29 27 -147 8 -186 -23 -350 -66 -350 -7 0 -22 23 -33 50 -19
47 -20 57 -8 160 7 61 15 148 17 195 6 109 19 128 63 92z m-23925 -792 c58
-22 31 -74 -44 -86 -40 -6 -131 18 -131 34 1 15 36 50 55 55 36 9 93 7 120 -3z
m21525 -179 c0 -4 24 -4 52 0 66 11 158 -15 158 -44 0 -13 -6 -18 -22 -16 -13
1 -46 -1 -74 -5 -38 -6 -59 -4 -80 7 -25 13 -31 13 -42 1 -7 -8 -26 -14 -42
-14 -20 0 -30 -5 -30 -15 0 -8 -5 -15 -11 -15 -6 0 -8 6 -5 13 3 6 9 20 12 30
4 9 10 17 14 17 4 0 18 11 31 25 25 25 39 32 39 16z m-22014 -86 c16 -13 17
-16 4 -24 -8 -6 -15 -18 -15 -28 0 -34 -64 -37 -369 -20 -43 2 -61 25 -27 34
22 6 29 23 9 23 -6 0 -9 2 -7 4 2 2 25 1 51 -3 30 -5 51 -4 58 3 6 6 61 14
123 17 62 3 121 6 133 7 11 1 29 -5 40 -13z m23771 -216 c-4 -34 -2 -44 19
-62 16 -14 24 -31 24 -54 0 -38 -11 -41 -75 -18 -21 8 -42 11 -45 7 -3 -5 -20
-14 -38 -21 -18 -8 -31 -19 -29 -24 4 -14 57 -42 77 -42 26 0 23 -34 -4 -46
-31 -15 -56 -6 -56 21 0 11 -5 20 -10 20 -6 0 -14 8 -17 18 -4 9 -17 25 -30
35 -25 20 -29 47 -12 78 7 15 7 24 -2 35 -9 11 -7 14 15 14 14 0 26 -4 26 -10
0 -16 40 -11 47 6 3 8 16 20 30 25 13 5 28 20 33 34 6 16 17 25 31 25 20 0 21
-4 16 -41z m-1039 -144 c13 -17 30 -25 50 -25 17 0 38 -7 47 -16 14 -15 14
-17 -2 -30 -15 -11 -20 -11 -29 1 -29 39 -112 -14 -86 -55 13 -22 6 -30 -26
-30 -15 0 -26 7 -29 20 -6 24 -23 27 -23 5 0 -9 -11 -27 -25 -41 l-26 -26 -18
24 c-15 20 -17 36 -12 91 1 5 13 7 29 6 37 -4 50 6 44 36 -11 59 68 88 106 40z
m-288 -86 c47 -10 67 -32 38 -41 -8 -3 -7 -11 5 -28 23 -33 21 -45 -9 -79 -23
-26 -30 -28 -53 -20 -14 6 -39 22 -55 37 -19 18 -30 23 -33 15 -3 -7 -13 -13
-23 -13 -10 0 -22 -4 -25 -10 -3 -5 -21 -10 -38 -10 -18 0 -52 -9 -76 -20 -24
-11 -52 -18 -63 -15 -10 4 -18 3 -18 -2 0 -5 -20 -16 -44 -25 -44 -16 -45 -16
-61 8 -15 23 -17 24 -51 9 -46 -19 -46 -19 -73 6 l-22 21 -6 -21 c-6 -24 -38
-28 -47 -6 -4 11 -10 13 -23 6 -48 -26 -86 -31 -116 -16 -44 22 -93 19 -110
-6 -12 -17 -19 -19 -35 -10 -29 15 -109 13 -157 -3 -42 -15 -88 -11 -104 8
-11 14 -22 146 -12 146 4 0 18 -12 30 -26 13 -15 26 -22 30 -17 3 6 16 13 28
17 23 7 39 36 25 45 -6 4 -6 16 -1 29 7 19 15 23 41 20 25 -2 34 -8 36 -25 2
-13 10 -23 18 -23 8 0 14 -4 14 -10 0 -13 46 -13 71 1 15 7 24 7 34 -1 9 -8
33 -9 71 -4 43 5 58 3 65 -7 8 -12 12 -11 22 3 12 15 18 15 72 -13 l58 -29 34
20 c35 21 98 26 122 11 8 -5 28 -2 52 8 30 12 39 22 39 40 0 24 0 24 20 6 14
-13 24 -15 31 -8 11 11 109 5 124 -8 14 -14 42 -11 49 6 4 12 27 25 73 44 1 1
25 -4 53 -10z m-41 -721 c-10 -31 -10 -41 0 -47 6 -4 -13 -6 -43 -3 -42 3 -60
0 -80 -14 -29 -22 -32 -36 -10 -54 10 -9 48 -13 122 -12 102 1 108 0 135 -26
30 -29 35 -57 11 -66 -9 -3 -37 -6 -64 -6 -27 0 -60 -4 -73 -9 -26 -10 -45
-43 -28 -49 6 -2 11 -10 11 -18 0 -17 27 -19 33 -1 2 6 11 -2 20 -20 21 -41
21 -43 -3 -43 -12 0 -20 -7 -20 -17 -1 -17 -1 -17 -11 0 -5 9 -17 17 -24 17
-8 0 -15 7 -15 15 0 8 -7 15 -15 15 -8 0 -15 4 -15 9 0 13 -74 20 -83 7 -5 -7
-14 -3 -26 12 -12 13 -31 22 -48 22 -18 1 -34 9 -47 27 -19 26 -19 26 2 44 12
9 22 25 22 36 1 21 23 53 37 53 18 0 22 38 7 59 -13 18 -11 23 22 57 29 28 34
38 23 45 -10 6 -6 9 14 9 22 0 27 -4 27 -23 0 -29 34 -62 55 -53 9 3 23 23 31
43 9 21 21 44 28 52 17 22 21 -14 5 -61z"/>
<path d="M43633 19866 c-68 -14 -146 -60 -141 -84 5 -25 49 -31 203 -29 123 2
147 5 162 20 25 24 9 45 -57 80 -59 30 -75 31 -167 13z"/>
<path d="M44027 19587 c-26 -30 -47 -63 -47 -74 0 -38 36 -57 116 -61 140 -8
185 10 208 83 11 38 -31 75 -99 86 -142 24 -127 27 -178 -34z"/>
<path d="M44436 19529 c-43 -5 -80 -10 -83 -12 -2 -2 1 -16 6 -30 23 -60 190
-52 205 9 12 47 10 48 -128 33z"/>
<path d="M52632 15580 c7 -11 17 -20 22 -20 5 0 50 -31 100 -69 50 -38 150
-114 221 -168 72 -54 186 -141 255 -193 69 -52 127 -97 130 -100 3 -3 21 -17
40 -30 19 -13 37 -27 40 -30 3 -3 21 -17 40 -30 19 -13 37 -27 40 -30 4 -6 71
-57 269 -208 31 -23 63 -48 71 -55 8 -6 51 -40 95 -75 44 -34 96 -76 115 -92
19 -16 52 -42 72 -57 169 -129 338 -281 338 -306 0 -11 -25 -16 -112 -21 -62
-4 -126 -9 -143 -11 -16 -2 -70 -6 -120 -10 -49 -3 -151 -10 -225 -16 -220
-16 -691 -47 -890 -59 -164 -10 -366 -23 -530 -36 -30 -2 -215 -13 -410 -24
-195 -11 -425 -24 -510 -29 -85 -6 -254 -15 -375 -21 -121 -5 -269 -15 -330
-20 -60 -5 -283 -18 -495 -30 -212 -11 -434 -25 -495 -30 -60 -5 -200 -14
-310 -20 -110 -6 -231 -13 -270 -15 -38 -3 -176 -12 -305 -20 -129 -8 -264
-17 -300 -20 -36 -3 -137 -9 -225 -15 -88 -6 -180 -12 -205 -15 -25 -2 -88 -7
-140 -10 -52 -3 -120 -8 -150 -11 -78 -6 -319 -23 -420 -29 -47 -3 -92 -8
-100 -10 -8 -2 -127 -11 -265 -20 -137 -8 -293 -20 -345 -25 -52 -6 -135 -12
-185 -15 -49 -3 -106 -8 -125 -10 -19 -3 -62 -7 -95 -10 -537 -43 -552 -44
-590 -53 -16 -3 -48 -7 -70 -7 -24 0 -39 -4 -38 -11 2 -13 -14 -16 -282 -44
-168 -18 -191 -18 -201 -5 -12 16 -94 19 -149 5 -28 -7 -28 -8 -5 -9 52 -3 -6
-20 -94 -27 -66 -5 -90 -4 -96 6 -6 9 -36 9 -146 0 -77 -7 -150 -14 -164 -16
-14 -1 -79 -8 -145 -14 -66 -5 -133 -12 -150 -15 -52 -8 -105 -14 -270 -30
-88 -9 -167 -18 -176 -20 -16 -5 -181 -27 -344 -46 -49 -6 -130 -17 -180 -25
-49 -8 -135 -21 -190 -29 -189 -26 -424 -76 -452 -98 -7 -5 -16 -6 -22 -3 -5
3 -22 1 -38 -5 -15 -6 -35 -12 -43 -14 -8 -2 -30 -8 -47 -14 -18 -5 -33 -7
-33 -4 0 3 -6 1 -12 -4 -7 -6 -38 -18 -68 -27 -111 -35 -272 -122 -337 -181
-35 -31 -63 -53 -63 -48 -1 4 -7 -5 -15 -22 -7 -16 -14 -24 -14 -17 -1 6 -6
12 -12 12 -6 0 -9 -7 -6 -15 4 -8 2 -17 -3 -20 -6 -4 -10 -15 -10 -26 0 -10
-5 -19 -11 -19 -6 0 -8 -9 -4 -21 4 -13 3 -19 -3 -15 -5 3 -14 -16 -19 -43
-36 -179 107 -514 395 -931 152 -220 393 -542 486 -651 17 -19 67 -80 111
-134 71 -88 194 -233 235 -276 8 -8 40 -44 70 -79 30 -35 88 -98 127 -140 40
-41 78 -87 85 -102 7 -15 25 -33 40 -39 15 -6 30 -19 33 -29 12 -37 234 -141
472 -221 553 -186 1262 -294 2403 -369 676 -44 2030 -101 3070 -130 190 -5
487 -14 660 -20 173 -5 486 -15 695 -20 209 -6 506 -15 660 -20 154 -5 458
-14 675 -20 388 -10 1334 -40 1885 -60 705 -25 835 -30 913 -30 l82 0 0 1091
0 1091 -122 -6 c-138 -7 -932 -13 -2503 -21 -1143 -6 -2055 -17 -3380 -40
-1553 -27 -2735 -26 -3501 4 -200 8 -259 13 -295 27 -46 19 -180 91 -239 129
-78 51 -349 215 -383 232 -40 20 -75 69 -60 84 17 17 184 28 578 39 209 6 715
22 1125 35 410 14 1033 34 1385 45 352 10 692 22 755 25 63 2 207 7 320 10
113 3 414 12 670 20 1286 41 2556 67 4505 95 385 5 800 13 923 16 l222 7 0
944 0 945 -127 -7 c-71 -4 -157 -10 -193 -14 -60 -6 -70 -4 -127 25 -34 17
-67 37 -75 42 -7 6 -29 24 -48 40 -19 15 -51 39 -70 52 -19 14 -45 34 -56 45
-12 11 -45 38 -74 60 -56 44 -79 63 -125 103 -16 15 -42 35 -56 44 -14 9 -33
23 -40 30 -8 7 -35 29 -59 48 -25 19 -52 40 -60 47 -8 6 -87 69 -175 139 -88
69 -178 141 -201 160 -22 18 -78 62 -123 96 -156 119 -240 183 -337 258 -181
140 -361 260 -390 260 -8 0 -17 7 -20 15 -4 8 -10 15 -15 15 -5 0 -4 -9 3 -20z
m1588 -2975 c0 -11 -9 -15 -32 -14 -40 2 -618 -20 -673 -26 -51 -5 -85 3 -85
21 0 10 16 14 63 15 34 1 145 5 247 8 361 14 480 13 480 -4z m-974 -18 c17
-17 -18 -26 -128 -31 -187 -10 -972 -27 -1453 -31 -236 -3 -475 -7 -530 -9
-55 -3 -206 -7 -335 -10 -129 -4 -307 -8 -395 -11 -88 -3 -241 -7 -340 -10
-99 -3 -234 -7 -300 -10 -66 -3 -203 -7 -305 -10 -102 -3 -279 -10 -395 -15
-115 -5 -298 -12 -405 -15 -323 -10 -1168 -44 -1615 -65 -870 -42 -1202 -61
-2018 -117 -94 -6 -344 14 -353 28 -3 5 3 9 13 9 10 0 124 7 253 15 571 36
1245 70 1895 95 143 6 359 14 480 20 185 8 733 28 1505 55 304 10 1164 33
1480 40 113 2 266 6 340 9 74 3 268 8 430 11 162 3 374 10 470 15 223 12 1512
46 1648 44 28 0 55 -3 58 -7z m-8125 -1505 c2 -27 8 -42 16 -42 7 0 13 4 13 9
0 6 12 3 27 -4 24 -12 29 -12 43 0 19 17 40 3 40 -27 0 -10 4 -18 8 -18 7 0
33 -60 33 -77 0 -5 6 -17 13 -28 7 -11 23 -47 36 -80 38 -99 76 -159 125 -195
105 -79 -27 -21 -170 74 -131 87 -241 184 -331 289 -16 19 -26 69 -16 84 4 7
36 13 72 15 56 3 66 6 75 25 12 28 13 26 16 -25z"/>
<path d="M33793 15473 c15 -2 27 -8 27 -12 0 -5 24 -7 53 -5 51 3 51 3 12 -6
-57 -13 -88 -12 -79 1 5 9 -6 10 -40 5 -33 -5 -52 -4 -63 6 -13 10 -17 10 -20
1 -3 -7 -11 -13 -18 -13 -8 0 -26 -5 -40 -10 -23 -9 -25 -13 -15 -25 13 -15 8
-19 -21 -16 -9 1 -19 -6 -23 -16 -3 -10 -9 -25 -12 -33 -6 -12 -3 -11 12 2 23
20 154 75 198 82 l31 6 -30 -11 c-149 -54 -239 -114 -368 -246 -42 -43 -97
-107 -122 -143 -55 -78 -148 -267 -139 -282 4 -6 3 -8 -2 -5 -9 5 -59 -91
-224 -438 -45 -93 -121 -251 -170 -350 -48 -99 -103 -211 -120 -250 -18 -38
-36 -72 -40 -75 -4 -3 -11 -16 -15 -30 -4 -14 -34 -79 -66 -145 -33 -65 -59
-125 -59 -131 0 -7 -4 -14 -9 -16 -13 -5 -69 -175 -80 -248 -21 -127 -8 -249
46 -455 14 -55 27 -110 28 -122 1 -12 6 -28 12 -35 6 -7 13 -25 17 -40 3 -15
13 -34 22 -42 8 -9 13 -16 9 -16 -3 0 5 -15 19 -33 15 -19 26 -41 26 -50 0 -9
12 -24 28 -34 32 -21 43 -34 35 -46 -5 -9 116 -137 130 -137 4 0 23 -15 42
-33 19 -19 53 -42 75 -53 22 -10 40 -22 40 -25 0 -3 18 -14 40 -24 22 -10 40
-24 40 -32 0 -7 11 -13 28 -14 24 0 25 -1 7 -9 -18 -8 -17 -9 8 -9 15 -1 27 2
27 7 1 26 17 32 46 16 l29 -16 -33 6 c-21 4 -31 2 -27 -4 4 -6 -4 -15 -17 -20
-23 -10 -22 -10 2 -4 14 4 46 7 72 8 26 0 53 7 59 14 23 22 59 13 101 -26 l40
-38 -38 2 c-22 1 -57 12 -78 23 -47 25 -58 20 -28 -12 26 -28 28 -39 5 -30
-12 5 -15 2 -10 -10 9 -24 -1 -21 -52 13 -48 33 -92 38 -111 15 -17 -21 -6
-29 20 -15 28 15 50 7 90 -35 33 -34 36 -61 4 -34 -13 11 -18 11 -21 2 -3 -9
-15 -6 -41 10 -20 13 -50 28 -67 35 l-30 12 30 -27 c22 -21 29 -35 27 -55 l-3
-27 -57 35 c-65 38 -97 43 -112 15 -9 -18 -7 -19 24 -14 37 6 62 -7 95 -48 18
-24 18 -25 1 -25 -10 0 -16 4 -14 8 3 4 1 8 -5 8 -5 0 -13 -4 -16 -10 -3 -6
-28 3 -59 20 -59 34 -98 41 -48 9 34 -22 40 -34 20 -42 -10 -4 -10 -7 0 -18
26 -28 10 -29 -30 -1 -71 48 -86 54 -108 42 -25 -14 -26 -30 -1 -23 24 6 77
-21 91 -46 15 -28 13 -33 -9 -21 -13 7 -22 7 -26 0 -4 -6 -24 0 -51 16 -44 26
-75 26 -40 1 13 -9 16 -20 11 -40 -7 -26 -25 -38 -25 -17 0 6 -5 10 -10 10 -6
0 -24 9 -39 21 -31 22 -72 23 -79 0 -3 -10 0 -12 13 -8 20 8 63 -16 89 -50 18
-24 18 -25 0 -22 -11 2 -24 0 -30 -3 -6 -4 -26 4 -44 17 -47 35 -80 33 -45 -1
8 -9 15 -20 15 -25 0 -5 -7 -9 -15 -9 -8 0 -15 -5 -15 -10 0 -6 -19 4 -42 20
-44 32 -81 36 -86 9 -2 -12 3 -15 21 -12 17 3 33 -4 55 -27 18 -17 32 -35 32
-39 0 -13 -76 4 -104 23 -14 9 -33 16 -42 16 -13 0 -11 -4 6 -18 l23 -19 -21
-21 c-12 -12 -28 -22 -35 -22 -7 0 -22 -7 -33 -15 -10 -8 -25 -15 -31 -15 -7
0 -35 -13 -61 -30 -27 -16 -59 -30 -71 -30 -11 0 -21 -4 -21 -10 0 -5 -5 -10
-11 -10 -6 0 -17 -7 -26 -16 -9 -8 -22 -13 -29 -10 -8 3 -14 1 -14 -4 0 -6 -5
-10 -11 -10 -6 0 -26 -12 -45 -26 -19 -15 -34 -21 -34 -16 0 6 -7 9 -15 6 -16
-7 -7 -16 83 -79 207 -148 225 -155 372 -162 l105 -5 150 75 c144 71 228 116
685 367 277 152 547 307 593 340 48 35 89 91 112 152 34 90 4 279 -55 350
l-19 23 8 -32 c8 -27 7 -31 -6 -26 -9 4 -21 0 -27 -8 -14 -18 -83 -59 -100
-59 -7 0 -32 -13 -54 -30 -23 -16 -46 -30 -51 -30 -8 0 -212 -102 -306 -154
-16 -9 -36 -16 -44 -16 -8 0 -11 -6 -7 -15 7 -20 7 -20 -60 20 -32 19 -69 35
-83 35 -19 1 -11 6 27 20 45 16 184 85 520 256 39 20 72 40 72 45 0 5 14 24
30 43 25 28 62 47 188 97 86 34 211 85 277 114 147 64 391 161 426 170 15 4
41 0 62 -9 36 -15 36 -15 56 17 32 52 61 73 151 112 128 55 177 68 242 62 48
-4 59 -2 75 15 33 36 164 88 223 88 13 0 37 9 54 19 36 22 165 44 201 35 14
-3 43 1 66 10 45 18 253 35 464 37 72 1 157 5 190 9 53 6 46 7 -65 10 -124 4
-124 4 -45 10 44 3 74 7 68 8 -17 3 -17 101 -1 139 6 15 12 51 13 80 0 35 7
58 19 72 18 20 15 58 -4 46 -13 -8 -13 -4 6 40 46 111 58 333 25 470 -31 128
-71 214 -152 326 -26 37 -46 70 -43 73 2 3 1 4 -3 1 -10 -8 -113 97 -106 108
3 6 1 7 -5 4 -5 -4 -34 9 -63 28 -30 19 -58 35 -64 35 -5 0 -3 5 5 11 13 9 12
10 -2 5 -19 -6 -160 63 -152 75 7 12 -25 31 -42 25 -9 -3 -47 10 -87 29 -39
19 -67 35 -61 35 5 1 -23 12 -63 25 -40 13 -85 31 -100 39 l-28 16 30 -5 c23
-4 20 -2 -10 9 -22 8 -53 17 -69 21 -24 5 -27 8 -15 17 11 8 11 9 -4 4 -24 -8
-72 15 -55 26 8 5 3 6 -14 2 -20 -4 -29 -1 -38 15 -6 12 -16 19 -22 15 -12 -8
-119 44 -131 64 -4 6 -16 12 -26 12 -11 0 -45 14 -76 30 -31 17 -63 30 -70 30
-7 0 -15 4 -17 8 -1 4 -30 21 -63 37 -33 16 -64 35 -68 42 -4 7 -14 13 -22 13
-17 0 -144 59 -128 60 8 0 10 7 6 17 -4 11 -8 13 -11 5 -3 -10 -7 -10 -19 -1
-8 7 -35 23 -61 36 -46 23 -46 24 -12 18 33 -5 33 -4 10 7 -14 6 -31 10 -38 9
-6 -1 -20 3 -30 8 -16 10 -16 10 2 11 14 0 9 7 -18 25 -29 19 -41 23 -56 15
-26 -14 -35 -13 -21 3 15 19 4 27 -40 27 -21 0 -41 5 -45 12 -5 8 -2 9 9 5 9
-3 19 -2 22 3 3 5 -7 10 -22 12 -16 2 -27 8 -26 13 1 6 -15 11 -35 11 -21 1
-27 0 -15 -3 19 -4 54 -33 40 -33 -3 0 -41 13 -83 30 -43 16 -93 33 -111 36
-27 5 -31 9 -22 20 9 11 8 14 -4 14 -8 0 -17 -5 -19 -11 -2 -7 -23 -7 -69 0
-37 6 -80 8 -96 5 -17 -3 -50 1 -77 10 -26 9 -70 15 -99 15 -29 -1 -40 -4 -24
-6z"/>
<path d="M38981 13989 c-30 -4 -99 -10 -153 -13 -55 -3 -104 -8 -108 -11 -5
-3 -31 -6 -59 -6 -28 -1 -51 -5 -51 -9 0 -4 -36 -7 -80 -8 -43 0 -88 -6 -99
-11 -11 -6 -55 -16 -98 -22 -43 -6 -82 -15 -87 -20 -6 -5 -18 -9 -28 -9 -22 0
-140 -60 -151 -77 -4 -7 -17 -13 -29 -13 -13 0 -18 -5 -15 -14 3 -8 -5 -19
-21 -27 -28 -14 -91 -69 -79 -69 3 0 25 10 47 21 23 12 43 20 45 17 2 -2 -12
-13 -33 -23 -20 -11 -63 -36 -95 -57 -32 -21 -61 -38 -64 -38 -24 0 -341 -252
-435 -345 -54 -53 -60 -56 -100 -54 -24 1 -49 7 -56 12 -19 15 -233 -1 -253
-19 -10 -9 -39 -14 -80 -15 -46 0 -58 -3 -43 -9 33 -13 56 -50 42 -67 -9 -11
-16 -8 -40 17 -15 17 -28 35 -28 41 0 34 -88 -30 -116 -83 -9 -17 -14 -31 -12
-32 2 -2 30 -9 63 -17 47 -11 204 -14 738 -16 374 -1 677 2 677 7 0 16 52 70
95 100 105 72 204 61 305 -36 31 -29 65 -55 76 -57 34 -5 45 -18 84 -98 21
-44 41 -75 45 -70 16 26 -137 264 -212 331 -61 54 -114 81 -178 90 l-50 8 58
1 c63 1 109 -14 162 -55 19 -14 35 -21 35 -15 0 7 6 8 18 2 9 -4 37 -17 62
-29 65 -28 110 -69 110 -98 0 -14 4 -22 10 -19 5 3 12 -6 16 -20 3 -13 11 -22
16 -19 6 4 13 1 17 -5 5 -7 40 49 85 136 43 81 129 229 192 330 125 201 158
261 185 342 25 71 24 94 -5 128 -24 28 -25 28 -148 28 -67 1 -147 -2 -177 -6z"/>
<path d="M38410 13119 c-76 -21 -176 -63 -198 -83 l-23 -20 36 -13 c24 -8 44
-9 61 -3 14 6 36 10 48 10 16 0 36 15 60 45 20 24 44 51 52 60 17 17 14 17
-36 4z"/>
<path d="M36639 12567 c4 -4 187 -9 407 -11 219 -2 379 0 354 4 -25 3 93 7
262 7 170 0 311 3 315 7 5 5 -297 7 -669 5 -372 -2 -673 -7 -669 -12z"/>
<path d="M37910 12549 c-66 -5 -69 -6 -25 -8 28 -2 59 -4 70 -5 17 -1 22 -14
34 -79 13 -68 13 -80 0 -87 -11 -7 -16 -2 -21 23 -4 17 -11 50 -17 72 l-10 40
4 -37 c3 -21 8 -54 11 -73 6 -32 4 -35 -19 -35 -19 0 -27 6 -30 23 l-4 22 -2
-22 c-1 -17 -7 -23 -25 -23 -21 0 -24 7 -39 83 -15 76 -16 40 -1 -45 6 -35 5
-38 -18 -38 -23 0 -26 6 -41 83 -15 76 -15 49 -1 -44 7 -39 6 -41 -17 -37 -22
3 -25 11 -38 81 -7 43 -15 76 -18 74 -2 -3 0 -31 6 -63 16 -86 15 -96 -11 -92
-20 3 -25 13 -37 81 -7 43 -15 76 -18 74 -2 -3 0 -31 6 -63 16 -85 15 -96 -11
-92 -19 3 -24 13 -36 81 -8 43 -16 76 -19 73 -3 -2 0 -28 6 -56 17 -81 15
-102 -11 -98 -20 3 -24 13 -35 77 -6 40 -15 78 -18 85 -3 6 -3 -5 0 -23 3 -19
8 -58 11 -87 l6 -52 -51 0 c-57 0 -52 -7 -71 102 -5 33 -13 62 -16 65 -3 3 -3
-10 0 -29 4 -19 10 -56 15 -82 5 -26 6 -50 3 -53 -10 -10 -42 -5 -42 7 0 9 -3
9 -12 0 -16 -16 -45 -15 -51 1 -4 10 -6 10 -6 0 -1 -7 -12 -13 -26 -13 -20 0
-25 6 -31 38 -3 20 -10 53 -15 72 -7 29 -7 26 -3 -15 3 -27 6 -59 7 -70 1 -14
-5 -21 -19 -23 -20 -3 -23 4 -35 70 -6 40 -16 80 -21 88 -7 11 -8 10 -4 -5 2
-11 7 -38 10 -60 4 -22 9 -52 12 -67 5 -23 2 -28 -15 -28 -26 0 -30 7 -46 93
-12 61 -14 64 -9 18 3 -30 8 -67 11 -82 5 -26 3 -29 -20 -29 -23 0 -26 5 -36
63 -6 35 -11 71 -11 80 0 9 -4 18 -8 21 -5 3 -3 -27 4 -67 17 -95 17 -97 -5
-97 -26 0 -30 8 -46 93 -12 61 -14 64 -9 18 3 -30 8 -67 11 -83 5 -27 4 -29
-18 -26 -21 3 -26 12 -39 80 -8 42 -18 79 -21 82 -3 4 0 -24 7 -61 19 -97 18
-105 -8 -101 -20 3 -25 13 -38 80 -8 42 -18 79 -21 82 -3 4 1 -28 8 -70 15
-79 10 -103 -20 -91 -10 4 -20 32 -28 82 -6 41 -15 78 -19 80 -4 2 -1 -28 7
-68 15 -81 12 -98 -15 -90 -14 3 -23 22 -35 81 -15 69 -15 35 -1 -45 6 -30 4
-33 -18 -33 -23 0 -26 6 -41 83 -15 76 -15 50 -1 -43 5 -32 4 -40 -9 -40 -22
0 -25 8 -39 93 -9 59 -15 77 -30 80 -24 7 -24 3 18 -251 29 -173 40 -222 57
-239 l20 -23 678 0 c653 0 679 1 688 19 8 13 0 77 -29 233 -46 255 -49 266
-63 270 -7 2 -46 0 -87 -3z m-184 -417 c-2 -4 0 -16 5 -27 7 -20 8 -20 8 1 1
22 27 28 49 11 8 -6 12 -6 12 2 0 21 20 11 21 -11 1 -17 2 -19 6 -5 2 9 11 17
18 17 7 0 15 6 18 13 3 9 7 9 20 -2 9 -7 23 -11 31 -8 21 8 48 -16 41 -35 -9
-23 -84 -23 -86 1 -1 14 -2 13 -6 -1 -3 -14 -14 -17 -44 -16 -25 1 -39 6 -39
15 0 7 -4 13 -10 13 -5 0 -10 -7 -10 -15 0 -22 -66 -20 -79 3 -10 16 -10 16
-11 0 0 -10 -4 -18 -10 -18 -5 0 -10 7 -10 15 0 8 -4 15 -10 15 -5 0 -7 -7 -3
-16 4 -12 2 -15 -8 -12 -18 6 -25 48 -7 49 7 0 26 2 41 3 17 1 32 -5 38 -14 8
-12 9 -12 8 5 -2 31 0 37 11 30 6 -4 9 -9 6 -13z"/>
<path d="M29302 11144 c-8 -14 -48 -17 -291 -24 -240 -6 -285 -10 -299 -23
-19 -20 -25 -149 -10 -214 l10 -42 80 4 c43 3 105 15 136 26 80 29 122 41 157
44 33 3 81 27 123 62 15 13 30 23 35 23 4 0 7 6 7 13 0 8 12 24 26 38 23 22
54 79 54 100 0 15 -18 10 -28 -7z"/>
<path d="M42527 9277 c-69 -71 -127 -138 -127 -147 0 -6 -7 -10 -15 -10 -7 0
-18 -7 -22 -15 -27 -47 -488 -517 -498 -507 -4 4 -5 0 -3 -8 2 -8 -3 -14 -10
-12 -8 1 -11 -1 -8 -6 3 -5 -6 -14 -19 -20 -14 -7 -25 -18 -25 -27 0 -8 -3
-15 -8 -15 -4 0 -29 -18 -56 -40 -26 -22 -45 -40 -41 -40 5 0 -1 -8 -12 -17
-11 -10 -44 -38 -73 -63 -50 -42 -110 -97 -172 -155 -15 -14 -30 -25 -33 -25
-4 0 -24 -18 -45 -40 -21 -22 -43 -40 -48 -40 -10 0 -129 -91 -147 -113 -6 -7
-18 -16 -26 -22 -48 -30 -98 -65 -110 -77 -8 -7 -27 -20 -43 -28 -16 -8 -42
-28 -58 -43 -15 -16 -32 -26 -37 -23 -5 4 -11 3 -13 -1 -5 -12 -128 -89 -168
-106 -19 -8 -45 -24 -57 -36 -12 -11 -27 -21 -32 -21 -15 0 -95 -42 -103 -54
-4 -6 -13 -11 -20 -11 -7 0 -44 -16 -83 -36 -38 -20 -87 -41 -107 -48 -20 -7
-65 -26 -100 -43 -70 -34 -163 -70 -253 -99 -33 -10 -69 -23 -80 -28 -28 -12
-229 -79 -295 -97 -51 -14 -160 -51 -204 -69 -13 -6 -17 -5 -13 2 7 12 -8 8
-96 -24 -20 -7 -48 -13 -60 -13 -13 0 -27 -4 -32 -9 -6 -6 -21 -12 -35 -14
-14 -2 -43 -9 -65 -15 -22 -6 -89 -23 -150 -37 -60 -14 -121 -29 -135 -34 -14
-5 -88 -23 -165 -41 -77 -18 -149 -37 -160 -41 -19 -7 -136 -40 -220 -60 -22
-6 -53 -14 -70 -19 -34 -10 -229 -60 -260 -66 -109 -23 -314 -82 -308 -89 5
-4 3 -5 -4 -1 -12 6 -52 -1 -173 -34 -36 -10 -110 -28 -165 -40 -55 -13 -140
-34 -190 -47 -136 -37 -139 -38 -310 -84 -88 -23 -169 -43 -180 -44 -27 -3
-69 -13 -140 -35 -33 -10 -71 -21 -85 -24 -14 -3 -77 -17 -140 -31 -63 -14
-167 -37 -230 -50 -63 -14 -146 -32 -185 -41 -38 -8 -106 -19 -149 -24 -72 -8
-94 -14 -161 -40 -25 -10 -115 -51 -135 -61 -128 -69 -233 -119 -248 -119 -10
0 -22 -3 -26 -7 -4 -4 -26 -13 -49 -20 -50 -15 -50 -15 -104 92 -41 80 -220
371 -302 490 -294 428 -631 771 -904 919 -157 86 -325 136 -454 136 -187 0
-399 -98 -555 -257 -76 -77 -108 -113 -108 -122 0 -3 -10 -17 -23 -31 -22 -24
-107 -147 -107 -156 0 -2 -17 -32 -38 -66 -20 -35 -47 -83 -59 -108 -45 -96
-91 -197 -103 -230 -7 -19 -19 -48 -26 -65 -136 -327 -268 -865 -368 -1510
-35 -226 -69 -529 -101 -910 -14 -165 -32 -338 -40 -385 -29 -165 -127 -837
-139 -947 -7 -62 -15 -116 -19 -120 -8 -7 -193 81 -297 142 -30 18 -86 49
-125 70 -38 21 -115 63 -170 93 -136 76 -333 172 -510 250 -49 22 -115 51
-145 65 -30 14 -113 48 -185 77 -71 29 -143 58 -160 65 -75 33 -180 75 -187
75 -5 0 -27 9 -51 19 -64 30 -107 36 -107 17 0 -9 5 -16 12 -16 16 0 473 -187
653 -267 426 -190 639 -296 963 -481 75 -43 173 -98 217 -121 44 -24 84 -47
88 -51 5 -4 4 -43 -2 -86 -50 -375 -106 -1374 -117 -2107 l-6 -447 2806 0
c1543 0 2806 2 2806 4 0 3 -34 123 -76 268 -41 145 -127 454 -190 688 -63 234
-147 542 -185 685 -39 143 -95 343 -126 445 -30 102 -61 205 -68 230 -23 80
-186 588 -210 655 -7 22 -59 172 -115 334 -156 454 -426 1169 -555 1471 -165
385 -290 660 -406 892 -49 98 -89 184 -89 192 0 8 12 23 28 34 59 42 500 261
537 267 121 20 1066 234 1505 340 80 19 195 47 255 61 134 31 1153 285 1262
315 43 11 121 32 173 45 533 136 1069 301 1360 419 373 151 621 290 950 534
88 66 77 57 250 202 117 98 732 704 829 815 18 22 52 59 75 84 125 135 297
330 291 330 -4 0 -21 -15 -38 -33z m-8932 -2637 c-6 -18 -4 -19 19 -10 20 7
27 6 34 -6 7 -12 22 -15 65 -13 32 2 57 1 57 -3 0 -3 -19 -21 -41 -39 -35 -27
-49 -33 -83 -30 -23 2 -43 6 -46 11 -3 4 -24 9 -46 11 -33 3 -40 1 -36 -10 4
-9 1 -12 -7 -7 -6 4 -19 2 -27 -5 -8 -6 -17 -10 -20 -7 -2 3 21 28 53 57 32
28 63 55 68 61 15 14 17 12 10 -10z m337 -124 c31 -16 61 -25 67 -22 7 5 8 1
4 -10 -5 -14 -3 -15 15 -5 46 25 38 8 -24 -50 -36 -33 -68 -58 -71 -55 -4 3 2
15 13 27 18 20 18 20 -7 14 -17 -4 -30 -1 -38 9 -8 9 -26 16 -42 16 -16 0 -29
5 -29 10 0 15 -60 39 -79 33 -9 -3 8 18 38 47 53 51 54 51 75 32 11 -10 46
-31 78 -46z m178 -111 c-10 -12 -10 -15 4 -15 9 0 15 -6 14 -12 -2 -7 5 -12
15 -12 9 1 17 -4 17 -11 0 -7 7 -15 15 -19 8 -3 20 -17 27 -31 6 -14 18 -25
27 -25 9 0 24 -7 34 -14 18 -14 17 -15 -3 -21 -13 -4 -20 -13 -18 -23 2 -10
-6 -25 -18 -34 -27 -22 -41 -23 -24 -3 11 13 9 15 -11 13 -19 -2 -25 2 -27 22
-3 28 -59 65 -93 63 -17 -2 -18 0 -4 13 15 15 20 34 9 34 -3 0 -12 -7 -21 -15
-19 -20 -30 -11 -13 10 24 28 4 25 -33 -6 -20 -17 -37 -27 -37 -23 0 13 124
124 139 124 11 0 11 -3 1 -15z m-776 -40 l117 -7 117 -75 c64 -42 144 -94 177
-116 61 -41 155 -130 155 -146 0 -5 3 -11 8 -13 4 -1 36 -39 72 -83 36 -44 67
-82 70 -85 3 -3 21 -25 41 -50 45 -57 60 -86 22 -43 -15 18 -54 60 -85 93 -32
34 -58 64 -58 67 0 3 -11 18 -25 35 -14 16 -25 27 -25 23 0 -4 -7 0 -15 9 -8
8 -15 19 -15 25 0 17 -22 24 -32 10 -7 -10 -8 -6 -5 14 2 15 0 30 -6 34 -6 3
-7 1 -3 -5 15 -24 -6 -11 -35 23 -20 22 -38 34 -52 32 -13 -1 -21 3 -20 10 2
9 -7 11 -30 6 l-32 -6 22 20 c13 11 20 23 17 26 -4 3 -13 -1 -21 -9 -9 -9 -22
-12 -32 -8 -9 4 -29 12 -46 18 -52 19 -62 28 -39 37 18 7 17 8 -3 8 -12 1 -28
10 -36 22 -11 15 -16 17 -20 7 -4 -9 -13 -5 -31 15 -14 15 -31 27 -38 27 -9 0
-10 2 -2 8 7 4 -45 8 -114 10 -70 2 -129 7 -132 12 -5 7 -101 15 -142 12 -10
-1 -18 -9 -18 -17 0 -8 -4 -15 -10 -15 -5 0 -10 5 -10 12 0 7 -6 5 -17 -4 -26
-23 -99 -58 -120 -58 -19 0 75 58 170 104 31 15 57 31 57 35 0 4 24 4 53 0 30
-4 106 -10 171 -14z m-189 -990 c128 -51 279 -165 400 -303 71 -80 193 -240
215 -282 7 -14 16 -27 20 -30 15 -11 166 -282 239 -430 125 -251 229 -501 356
-850 64 -177 175 -514 175 -533 0 -23 -15 7 -41 85 -42 126 -61 178 -137 378
-186 488 -316 774 -519 1140 -130 233 -284 445 -439 604 -23 24 -121 106 -154
130 -52 38 -127 76 -200 103 -58 22 -61 24 -25 20 22 -2 72 -17 110 -32z
m-1040 -3003 c71 -36 176 -134 262 -247 44 -58 144 -247 196 -370 14 -33 45
-103 70 -155 24 -52 73 -160 107 -240 34 -80 66 -149 70 -155 4 -5 10 -19 13
-30 3 -11 32 -78 64 -150 51 -111 99 -240 144 -383 6 -19 8 -36 5 -39 -3 -4
-6 -2 -6 4 0 5 -43 31 -96 58 -63 31 -99 56 -106 71 -6 13 -16 24 -22 24 -12
0 -44 61 -119 220 -24 52 -60 129 -80 170 -19 41 -49 107 -67 145 -48 105 -73
159 -130 279 -29 60 -63 135 -77 165 -14 31 -45 97 -68 146 -115 240 -151 318
-191 413 -47 113 -47 114 31 74z"/>
<path d="M22653 3252 c-18 -9 -33 -22 -33 -28 0 -7 -9 -14 -20 -17 -37 -10
-21 -25 38 -35 39 -6 47 -10 26 -11 -17 0 -37 -7 -44 -15 -6 -8 -17 -13 -25
-10 -7 3 -16 1 -20 -5 -4 -7 -15 -5 -31 6 -19 12 -22 18 -12 25 9 6 7 8 -8 6
-11 -2 -28 3 -37 11 -22 17 -45 8 -57 -23 -5 -13 -14 -27 -19 -31 -6 -3 -11
-15 -11 -26 0 -16 -7 -19 -40 -19 -24 0 -40 5 -40 12 0 29 -14 -7 -20 -51 -5
-38 -3 -48 7 -44 9 4 13 -6 13 -36 l0 -40 38 22 c20 12 39 25 40 29 6 14 30 9
36 -7 7 -19 36 -19 64 1 27 19 28 34 2 34 -13 0 -20 7 -20 20 0 15 -9 21 -40
26 -40 7 -56 24 -21 24 10 0 24 7 31 15 19 23 46 18 80 -15 25 -24 36 -28 63
-24 58 10 97 25 91 35 -6 10 14 69 23 69 11 0 52 -48 58 -67 4 -17 2 -23 -9
-23 -8 0 -22 -7 -31 -16 -10 -11 -24 -14 -41 -10 -15 4 -32 2 -40 -5 -8 -7
-27 -9 -49 -5 -33 6 -35 5 -35 -19 0 -19 5 -25 23 -25 12 0 32 7 43 15 23 15
34 11 34 -14 0 -32 16 -44 39 -32 18 10 21 9 21 -5 0 -12 13 -4 40 26 22 24
40 45 40 47 0 3 7 11 15 20 12 12 19 13 30 3 8 -7 15 -18 15 -25 0 -7 6 -25
14 -40 l14 -27 7 23 c4 13 18 32 31 42 14 10 24 29 24 43 0 21 -4 24 -40 24
-27 0 -40 4 -40 13 0 18 79 103 92 99 6 -2 8 4 4 13 -3 9 -6 21 -6 26 0 16
-30 10 -60 -13 -29 -21 -31 -21 -65 -5 -19 9 -35 21 -35 26 0 12 -56 31 -89
30 -14 0 -41 -8 -58 -17z"/>
<path d="M25672 486 c-2 -40 17 -65 49 -66 10 0 19 -12 23 -30 6 -33 31 -39
83 -19 19 7 29 7 31 0 5 -16 52 -13 58 3 3 8 -3 26 -13 40 -14 20 -27 25 -58
26 -57 0 -87 10 -81 26 3 7 0 11 -7 9 -7 -2 -26 -6 -44 -9 -30 -5 -32 -3 -36
27 -4 30 -4 29 -5 -7z"/>
<path d="M50925 69 c-191 -12 -367 -30 -401 -40 -17 -5 -80 -13 -140 -18 -79
-6 26 -9 379 -10 481 -1 487 -1 487 19 0 17 7 20 45 20 43 0 45 -1 35 -20 -10
-19 -8 -20 82 -20 71 0 89 3 80 12 -24 24 -10 28 88 28 60 0 100 -4 100 -10 0
-5 -18 -10 -40 -10 -22 0 -40 -4 -40 -10 0 -5 21 -10 46 -10 41 0 45 2 42 23
-3 21 -9 22 -123 30 -78 4 -121 3 -123 -3 -6 -16 -82 -12 -82 3 0 11 -30 16
-122 20 -134 8 -141 8 -313 -4z"/>
</g>
</svg>
